<svg xmlns="http://www.w3.org/2000/svg" viewBox="0 0 2600.26 2955.74"><g id="Layer_2" data-name="Layer 2"><g id="Layer_1-2" data-name="Layer 1"><path d="M2353.83,1751.82c11.52,2.91,22.86,6.13,34.37,8.59,12,2.56,13.57,4.16,13.12,17.07,12.66,11.39,27.84,19.53,43.89,25.85,26.26,10.34,51.68,22.6,74.53,38.88,20.79,14.82,39,32.9,50.9,56.37,9,17.65,19.6,34.57,23.89,54.17,6.79,31,9.52,62.14-3.1,92.35-8.59,20.56-21.57,38-40.21,51.05-30.77,21.59-64.37,38.12-97.46,55.58-34.79,18.35-69,37.86-97.2,65.67-22.93,22.59-40.43,49.34-56.39,77.35-19.75,34.67-40.69,68.72-67.23,98.88s-56.9,55.08-92.64,73.13c-37.13,18.76-76.69,28.93-118.46,29.17-22.55.14-44.18-5.95-65.58-12.08-20.37-5.84-40.37-13-60.46-19.81-32.15-10.91-64.82-19-98.93-20.7-23-1.15-46-1.87-69,.41-31.62,3.14-61,12.48-88.51,29,23.92,30.85,36.79,65.58,39.72,103.71,2,25.74-2.37,50.57-12.42,74.82-15.88,38.37-41.77,68.35-73.23,94.4-24.11,20-47.33,41-71.86,60.48-48.29,38.26-98.42,74.09-152.28,104.13-35,19.53-72.5,33.36-112.41,39.61-11.34,1.77-22.76,3.06-34.11,4.76-18.12,2.7-35.77-.18-53.53-3.54-32.5-6.16-58.67-23.51-81.13-46.51a169.56,169.56,0,0,1-38.23-59.49c-9.23-24.78-16.35-50-15.69-76.69a151.92,151.92,0,0,1,2.51-24.54c5.51-29,16.6-55.9,34.73-79.27a408.73,408.73,0,0,1,35.14-39.4c48.37-48,101.15-90.87,155.63-131.7,17.85-13.39,35.22-27.5,53.73-39.92,28.94-19.42,57-40.75,90.4-52.31,27.56-9.54,55.66-17.49,85.4-16.1,27.12,1.26,52.2,9.78,76.14,21.91a163.13,163.13,0,0,1,53.31,43.07c3.15,3.87,6.57,7.52,9.81,11.21a169.25,169.25,0,0,1,67.3-31.07c20.07-4.32,40.53-5.84,61.11-5.78,39.41.13,78.4,3.73,116.1,15.79,21.56,6.9,42.5,15.74,64.08,22.56,20.54,6.49,41.32,12.58,62.4,16.87,24,4.88,48,.95,71.66-4.14,45.18-9.71,83.79-32.3,118.18-62.19,13.22-11.49,24.6-25.24,36-38.65,26.47-31.13,46.38-66.65,66.92-101.72,25.36-43.31,58.16-79.67,101.68-105.2,31-18.2,62.9-34.86,94.31-52.36,19.15-10.67,39-20.22,56.14-34.22,23.81-19.46,37.15-44.16,38.82-75.24,1.8-33.75-6.62-64.57-22.54-94.23-15.62-29.13-36.82-52.31-65.71-68-19.87-10.8-40.52-20.18-60.74-30.37-9.95-5-19.71-10.42-29.55-15.66-2.82-1.5-5.61-3.06-9.05-4.94-1.38,4-2.4,7.36-3.74,10.63-2.61,6.39-5.15,7.63-11.73,6-12.86-3.17-25.7-6.36-39.29-9.72-1.35,4.43-3,8.4-3.74,12.54-2.56,14.86-4.78,29.78-7.17,44.67-3.84,23.77-7.49,47.57-11.63,71.28-3.53,20.18-8.16,40.17-11.38,60.39-4.58,28.74-14.73,55.36-27.19,81.52-14,29.33-35.85,46.32-67.89,52.3-23.69,4.42-47,3.47-70.76,2.22-32.89-1.72-64.62-9.95-97-14-23.1-2.9-45.91-8.12-68.9-12-14.88-2.53-29.87-4.39-44.75-6.91-27.29-4.6-54.65-8.87-81.76-14.34-52.81-10.65-105.48-22.08-158.21-33.12-51.37-10.76-102.68-21.85-154.16-32-40.56-8-81.41-14.54-122-22.46-18.31-3.58-36.23-9.16-54.43-13.37-6.94-1.61-14.27-1.5-21.27-2.89-25.37-5-50.65-10.48-76-15.56q-44.94-9-90-17.66-33.88-6.49-67.86-12.5c-21.59-3.85-43.28-7.16-64.82-11.26-31.08-5.92-62.05-12.45-93.1-18.52-21.15-4.12-42.38-7.77-63.54-11.84q-36-6.92-71.93-14.21c-35.56-7.19-71-14.82-106.66-21.7-31-6-62.15-11.18-94-16.86-5.74,47.16-6.74,94.67,2.6,142.84,7.82-2.72,14.87-5.27,22-7.6a49,49,0,0,1,10.42-2.58c5.92-.56,7.9,1.24,7.63,7.42-.33,7.52-.67,15.19-2.33,22.49-4.18,18.37-5.55,37-6.14,55.7-.49,15.46-1,30.93-1.51,46.4-.39,10.75-5.07,13.91-14.47,8.77q-21.3-11.64-41.89-24.57c-25.58-16.09-50.88-32.61-76.28-49-.55-.36-.85-1.11-1.94-2.58,11.37-11.79,27.71-15.69,41.64-25.46-9.48-29.85-13.61-61.13-16.82-92.51-3.24-31.71.85-63.19,5-95.86-8.28-2.22-16.41-4.59-24.64-6.6-25.47-6.21-51.2-11.5-76.39-18.67-16.88-4.81-34.1-10.31-49.26-18.88-30.42-17.18-55.41-40-63.52-76.39a63.73,63.73,0,0,1,1.24-31.91c1.17-4.15,3-8.23,3.41-12.45,1.44-14.28,7.52-27,13.11-39.81,14.56-33.27,29.94-66.19,44.79-99.34,8.08-18.06,15.42-36.45,23.67-54.43,7.2-15.68,15-31.12,22.9-46.45,12.37-24,24.63-48,37.75-71.52q29.67-53.25,60.57-105.81c11.31-19.19,23.33-38,36-56.3,11.08-15.94,23.69-30.7,39.4-42.62a94.35,94.35,0,0,1,39.1-17.25,184.24,184.24,0,0,1,55.76-3c27.17,2.81,54.44,4.59,81.63,7.23,12.16,1.18,24.21,3.43,36.32,5.15,3.5.5,7,.84,11.69,1.38,2.7-13.63,6.05-26.52,7.69-39.61,3.55-28.41,3.17-57-4.27-84.68-8.29-30.9-16.91-62-37.36-87.72a298.85,298.85,0,0,0-60-57.26c-5-3.57-8.66-2.89-13.51.36-26.89,18-54.12,35.53-81,53.57-20.89,14-41.35,28.71-62.17,42.85-10.12,6.87-20.68,13.1-30.94,19.77-30.15,19.58-59.79,40-90.49,58.68-38.09,23.18-77.06,44.91-115.6,67.34-6.82,4-13.47,8.26-20.12,12.52-7.05,4.51-13.92,4.19-21.39.64-20.88-9.93-32.35-27.25-37.41-48.8-2.45-10.41.29-20.53,9-28.49,16.47-15.12,33.4-29.44,52.44-41.42,21.92-13.79,42.93-29,64.34-43.59,2.08-1.42,4.15-2.86,6.3-4.18,22.67-13.92,45.4-27.76,68-41.73,33.66-20.75,67.14-41.81,100.95-62.32,22.11-13.41,44.72-26,67-39.12,27-15.86,53.79-32,80.77-47.81,33.49-19.66,67.18-39,100.59-58.78C832,690.78,846,681.25,860.35,672.3q68.21-42.59,136.52-85c29.35-18.14,59.25-35.41,88.37-53.91,33.71-21.43,66.73-43.95,100.23-65.71q100.47-65.25,201.18-130.14c38.15-24.51,76.85-48.15,115-72.63,23.34-15,46.11-30.8,69.17-46.18,5.39-3.6,11-6.86,16.37-10.47,15.59-10.49,37-4.92,47.49,12.25,7.81,12.83,9.57,26.41,7.52,40.48-1.32,9.1-7.14,16.64-14.69,21.92-36.91,25.74-73.62,51.78-111.16,76.57-21,13.87-43.59,25.29-65.21,38.23-23.15,13.85-46.25,27.83-68.94,42.42-29.64,19.05-58.55,39.24-88.33,58.05-28.26,17.85-57,34.91-85.93,51.7-39.24,22.81-77.2,47.54-114.71,73.06-36.32,24.71-73.23,48.57-109.8,72.94-26.35,17.56-52.37,35.63-78.88,52.95-27.1,17.72-54.61,34.8-81.92,52.19a31.27,31.27,0,0,0-3.45,3.07,65.07,65.07,0,0,0,4.6,4.92,328,328,0,0,1,83.07,107.88c11.65,24.22,17.41,50.14,21.81,76.46,5.89,35.33,2,70.36-3.16,105.31-2.15,14.47-5.36,28.78-8.35,44.53l253.33,52.35c12.1-12.6,22.51-25.12,34.63-35.68,21.13-18.41,43-36,65.16-53.19,17.31-13.42,35.51-25.62,55.27-35.42,29-14.41,58.34-28.16,89.73-36.6,21.51-5.79,43.37-10.2,65-15.7,27.14-6.9,54.22-14,81.16-21.67,5.26-1.49,10.45-5,14.45-8.86,18.73-18.1,40-31.46,65.19-38.79a128.19,128.19,0,0,0,25.77-10.88,35.68,35.68,0,0,0,12-11.68c6-9.34,11-19.37,16.49-29.1,10.92-19.49,17.77-40,16.84-62.75-.35-8.56-3.55-14.36-11.07-18.12-10.62-5.31-21.09-10.91-31.75-16.12-31.9-15.6-55.77-38.74-69.82-71.86-8.56-20.18-18.83-39.63-27.43-59.8-11.37-26.69-16.16-55.14-19.86-83.71-2-15.18,4-23.7,19-26,21.16-3.21,41.54.88,60.77,10.12,16.83,8.08,33.47,16.59,50.74,25.19,3.72-4.16,2.55-9.26,2-14-1.45-12.14-4.26-24.19-4.67-36.34-.43-12.88,1.25-25.83,2.09-38.74.17-2.5.81-4.95,1.12-7.44,1.19-9.48,5.3-12.88,14.6-9.91a118.87,118.87,0,0,1,25.52,11.22c27,16.44,50.28,37.06,68.72,63.09,18.81,26.55,31.75,55.6,38,87.4,2.94,15.07,3.89,30.55,5.35,45.89,1.31,13.86,4.74,27.06,12.89,38.39,9,12.56,21.15,20.35,37.27,20.77,12.95.33,25.92.63,38.83,1.65,15.93,1.27,31.41,5.09,45,13.67A86.42,86.42,0,0,1,1989.75,788a260.72,260.72,0,0,1,23,32.68c10.08,16.85,22.44,31.72,36,45.73,15.27,15.78,31,31.11,42.46,50.18,1.92,3.21,5.54,5.48,8.61,7.9,16.95,13.4,17.75,37.88.88,51.46-27.33,22-56.43,41-90.46,51.46-11.31,3.48-22.06,8.77-33.38,12.25-7.46,2.3-15.45,2.89-23.22,4.15-2.11.34-4.29.2-6.42.45-14.76,1.73-23.35,11.2-23.54,25.89-.05,4.79,2,7,7.53,6.68,6.08-.41,12.07-1.92,18.13-2.7,11.39-1.46,22.76-3.32,34.2-3.93,9.88-.52,18.74,3.51,27.59,8,20.43,10.44,34.91,27.4,49.82,43.87a90.89,90.89,0,0,0,26.12,20.57q37.86,19.35,75.79,38.6c27.16,13.85,30.39,42.8,7.34,63.08-7.78,6.85-16.69,9.75-26.66,10-10.37.24-20.75,0-30.67,0-4,5.44-.4,9.59.4,14,1.15,6.29,3,12.74,2.53,19-1,13.57-9,22.37-21.83,26.61a66.37,66.37,0,0,1-32,2.19c-18.77-3.14-37.46-6.83-56.14-10.52-13.4-2.64-26.76-5.56-40.09-8.53a200.91,200.91,0,0,1-64.33-27c-10-6.34-20.29-12.32-30.84-17.7-20.42-10.42-39.77-6.09-56.21,8-20.84,17.79-42,35-64.79,50.21-.53.35-.74,1.18-1.69,2.79,5,1.18,9.68,2.39,14.4,3.38q55.41,11.67,110.83,23.25c29.94,6.21,59.92,12.24,89.87,18.41,5.27,1.09,10.54,2.32,15.7,3.85,26.32,7.78,53.49,11,80.48,15.2,17,2.68,33.82,6.57,50.75,9.78,33.55,6.37,67.2,12.23,100.66,19.07,37.33,7.64,74.36,16.56,110.33,29.44,27.61,9.89,48.15,27.86,63.26,52.84,7.3,12.07,8.18,25.35,8.77,38.49.66,15,.29,29.83-3.76,44.84-4.83,18-6.29,36.82-9.58,55.22-2.21,12.37-5,24.65-7.64,36.93-6,27.38-12,54.73-18,82.11C2353.57,1747.56,2353.83,1749,2353.83,1751.82Zm-1695.28-33c4.12,1.14,6.81,2.11,9.59,2.63,34.23,6.44,68.45,13,102.73,19.17,28.64,5.16,57.4,9.71,86,14.86,32.18,5.78,64.35,11.66,96.42,18,34.55,6.83,69,14.19,103.45,21.42q58,12.19,116,24.58c15.47,3.32,30.77,7.44,46.29,10.48,24.69,4.84,49.51,9,74.23,13.6,20.15,3.77,40.22,8,60.38,11.68,35.34,6.49,70.72,12.76,106.09,19.08,34.69,6.2,69.36,12.47,104.06,18.5,34,5.92,68.19,10.82,102,17.56,33.11,6.6,65.87,15,98.78,22.54,4.55,1,9.1,2.13,13.68,3q34.37,6.77,68.76,13.44c6,1.16,11.93,2.41,17.92,3.44,8.47,1.46,17,2.55,25.45,4.17,7.76,1.5,15.38,3.72,23.14,5.22,18.7,3.6,37.48,6.71,56.14,10.47,20.45,4.13,40.78,8.81,61.19,13.17,13,2.78,25.93,6.87,39.07,7.8,25.23,1.78,49.89,6.87,74.46,11.88,29.25,6,53.63-11.29,66.16-29.2,7.42-10.61,11.18-24,15.39-36.59,4-11.89,6.39-24.3,9.49-36.48q10.76-42.32,21.49-84.63c5.45-21.59,11.29-43.1,16.07-64.84,4.62-21,8.08-42.33,12.12-63.5,3.43-18,7.14-35.94,10.42-54q6.54-36.06,12.58-72.22c4-23.49,4.68-47.22,4.87-71,.07-8.05-2.48-15.29-9.27-19.65-8.14-5.23-16.59-10.45-25.62-13.74-23.69-8.61-48.6-12.82-73.29-17.32-41.74-7.59-83.71-13.87-125.48-21.28-25.13-4.46-50.06-10.08-75.11-15-22.57-4.47-45.28-8.27-67.74-13.22-47.41-10.45-94.66-21.57-142-32.19-28.06-6.3-56.26-12-84.31-18.36a31.7,31.7,0,0,0-20.82,2c-12.83,5.6-26,10.52-39.3,14.93-9.53,3.16-19.36,6-29.28,7.28q-29.92,4-60.11,6c-16.85,1.12-28.19,9.12-35.77,23.8-5.11,9.91-10.09,20-16.53,29.08-8.12,11.4-10.91,23.39-11.28,37.27-.75,28-13.33,43.46-39.06,50.4-21.62,5.83-44.66,7.62-67.18,8.59a760.22,760.22,0,0,1-79.87-1.22c-36.58-2.28-73.2-4.77-108.84-14.89-43.75-12.41-84.7-30.3-120.28-59-6.59-5.31-11.91-12.53-16.66-19.64-2.08-3.11-2.1-8.27-1.55-12.29.63-4.52,3.19-8.74,4.47-13.21,1.78-6.18,4.44-12.47,4.49-18.73.15-23.46,4.65-45.92,15.94-66.38,11.81-21.39,25-42,37.79-62.87,3.56-5.8,7.9-11.12,11.89-16.66l4.23-5.92c-23.17-9.18-46.91-13-70.38-17.77-31.32-6.32-62.79-11.92-94.18-17.89-2.47-.47-4.81-1.59-7.27-2.07-17.25-3.35-34.48-6.84-51.79-9.81-6.27-1.07-12.76-.87-19.44-1.26-3.37,7.18-6.45,13.76-9.41,20.08,15.41,5,29.42,9.41,43.4,14,5.07,1.65,8.86,4.69,10.25,11.79-3.61,4.51-7.34,10.3-12.17,14.93-6.21,6-13.24,11.08-20,16.43q-27.53,21.72-55.16,43.28c-10.23,7.93-20.29,16.2-31.23,23a56.55,56.55,0,0,1-21.91,8c-11.25,1.49-17.55-3.86-19.85-15.16-1.87-9.14-2.88-18.47-4-27.74-1.87-15.34-3.51-30.71-5.26-46.07-1.91-16.79-4.05-33.55-5.68-50.37-.85-8.77,1.14-10.88,10-11.45a112.11,112.11,0,0,1,16.18.36c8.1.67,16.16,1.73,24.8,2.68,1.18-5.39,2.15-9.86,3.33-15.27-17.08-2.91-33.29-5.87-49.58-8.42-25.26-3.94-50.57-7.67-76.23-3.73-5.29.81-10.82,1-15.78,2.75-7.78,2.76-15.66,5.85-22.58,10.25-7.78,4.93-15.47,10.65-21.5,17.52-6.57,7.48-11.66,16.41-16.48,25.21-3.87,7-9.19,13.7-9.73,22.94,5.89,3.19,11.4,6.58,17.24,9.23A19.93,19.93,0,0,1,640.27,1263a58,58,0,0,1,.07,16.11c-4.69,30.48-13.87,59.41-30,86-5.38,8.88-9.35,18.61-14.22,27.83-7.22,13.66-14.46,27.31-22.07,40.76-7.43,13.14-16.82,25.39-22.73,39.15-11.91,27.74-28.67,51.54-51.81,70.67-5.3,4.38-12.31,7.34-19,9.23-8.6,2.43-17.66,3.3-26.57,4.5-7.66,1-13.82,4.32-17.54,11.1-12.65,23-21.54,47.07-20,74,.78,13.25,3.54,18.1,16.21,22.32q29.6,9.85,59.58,18.57c19.31,5.63,38.78,10.72,58.24,15.79,9,2.34,18.1,4.06,27,6a36.61,36.61,0,0,0,3-4.33c17-37.14,40.85-69.44,69.82-98,6.29-6.2,14.28-10.78,21.85-15.53,5.52-3.46,11.59-3.06,17.56-.25,13.12,6.15,25.56,13.39,35.46,24.11a54.17,54.17,0,0,1,9.24,14.25c3.48,7.67,1.66,14.83-4.6,20.61-10,9.29-20.14,18.51-30.22,27.76C685,1687.1,671.22,1701.26,658.55,1718.84Zm959.1,754.39c-7.83-8.49-14.59-16.45-22-23.73-18.07-17.72-40-29.48-63.66-37.35-20.84-6.92-42.33-11.77-64.66-7.48-7.41,1.43-14.84,2.72-22.22,4.29a219.27,219.27,0,0,0-71.73,28.7,1082.62,1082.62,0,0,0-93.6,65.53c-22.32,17.56-45.34,34.28-67.1,52.52-30.88,25.88-61.19,52.46-91.15,79.4-24,21.55-44.7,45.9-57,76.28-7.42,18.41-13.57,37.31-12.83,57.5,2,54.26,21.09,100.34,63.44,136.24,25.69,21.78,55.39,32.36,87.93,33.4,40.33,1.28,79.06-8.34,116.65-23.06,50.07-19.6,94-49.64,137.61-80.13,39.81-27.85,77.36-58.69,113.53-91.22,19.52-17.56,39.78-34.14,56.07-55.09,13.65-17.55,23.3-37,31.17-57.52A35.92,35.92,0,0,0,1660,2621c1-16.51,1.36-33-.46-49.53-2.78-25.31-10.33-49.21-21.31-72-3.29-6.82-7.29-13.88-14.14-18.73l-37.74,30.46c6.35,14.68-1.84,24.11-12,32.55-9.14,7.59-18.31,15.19-27.91,22.17-16.27,11.83-32.89,23.18-51.7,36.37l-10.8-14.79c-56.72,46.95-99.33,78.62-109.51,81.41-3.69-3.25-2-6.57.41-9.34a56.51,56.51,0,0,1,8.68-8c19.33-14.44,38.78-28.7,58.13-43.1,12.64-9.4,25.19-18.93,37.5-28.19a54.19,54.19,0,0,0-1.82-5.46c-4.49-9.14-4.37-10.39,2.16-17.86,1-1.08,2-2.07,3.06-3.06,22.9-21.51,48.43-39.65,74.31-57.28,8.2-5.58,13.56-4.36,20.73,3.16a33.08,33.08,0,0,0,2.7,2.26Zm448.68-1078.49c-.12.7-.24,1.4-.35,2.1,9.77,1.83,19.56,3.53,29.3,5.52,22.88,4.67,45.81,9.18,68.6,14.29,39.92,8.94,80.82,13.49,119.71,27.26,15.09,5.34,27.87,13.18,37.9,25.53,5.36,6.61,9.05,14,8.76,22.71-.46,13.27-.95,26.56-2.24,39.77-4.13,42.55-7.86,85.15-17.45,127-11.33,49.43-22,99-33.67,148.37-6.68,28.33-14.62,56.36-22.06,84.5-4.68,17.72-9.14,35.51-14.37,53.06-4.08,13.7-7.61,27.48-16.17,39.7-18,25.65-41.65,38.89-73.11,37.53-11.47-.49-22.94-1.06-34.37-2-12.18-1-24.37-2-36.47-3.69-16-2.19-32-4.92-47.92-7.57-25.87-4.3-51.77-8.46-77.56-13.15-26.17-4.75-52.27-9.93-78.35-15.18-30.67-6.19-61.35-12.35-91.9-19.09-34-7.52-67.87-16-101.9-23.48-30.19-6.69-60.51-12.86-90.83-18.93-20.09-4-40.16-9-60.49-10.81-27.71-2.43-54.75-8-82.05-12.62-29.34-4.9-57.84-14-87.79-16-15-1-29.89-4.18-44.74-6.89-28.3-5.16-56.55-10.6-84.79-16.12-14.82-2.9-29.56-6.23-44.34-9.32-23.92-5-47.91-9.68-71.74-15-18.24-4.11-36.22-9.39-54.44-13.58q-50.46-11.6-101.08-22.46c-23.51-5.07-46.69-11.84-71-12.74a195.81,195.81,0,0,1-28.89-3.7c-21.55-4.08-43-8.74-64.49-13q-59.25-11.81-118.55-23.44c-10.19-2-20.41-3.87-31.1-5.88a222.55,222.55,0,0,0-29.82,76c3.12,1.31,5,2.44,7,2.89,11.23,2.48,22.46,5,33.75,7.13,36.38,7,72.79,13.72,109.16,20.7,39.18,7.52,78.32,15.25,117.5,22.8,23.26,4.48,46.6,8.59,69.84,13.23,14.44,2.89,28.66,6.85,43.11,9.67,38.1,7.44,76.27,14.49,114.41,21.74,22.6,4.3,45.24,8.38,67.75,13.13,41.13,8.67,82.16,17.85,123.27,26.64,16.79,3.6,33.14,10,50.86,8,3.12-.34,6.43.64,9.6,1.27,28.91,5.74,57.76,11.8,86.72,17.25,24.38,4.58,49,8,73.32,12.81,35.28,6.93,70.41,14.64,105.61,21.94,40.83,8.48,81.71,16.73,122.51,25.35,34.45,7.28,68.73,15.38,103.25,22.29,31,6.21,62.22,11.4,93.38,16.83,26.55,4.62,53.2,8.74,79.73,13.49,15.52,2.78,30.88,6.5,46.36,9.55,9.16,1.8,18.37,3.44,27.64,4.54,14.61,1.73,29.41,2.18,43.91,4.56,26.47,4.34,52.4,2.16,78.07-4.56,20.38-5.34,34.91-18,43.67-37.14,2.55-5.56,4.62-11.35,7.44-16.76,8.72-16.77,13.48-34.81,17.24-53.13,5.49-26.75,10.61-53.58,15.7-80.42q3.32-17.46,5.86-35.07c2.08-14.21,3.37-28.54,5.76-42.69,2.33-13.79,5.58-27.42,8.49-41.11,5.91-27.75,11.72-55.53,17.84-83.24,7.05-31.92,14.49-63.75,21.58-95.66,4.27-19.25,9.33-38.41,8.56-58.43-.08-2.13.6-4.28.69-6.43.46-11.12,1.48-22.27,1.08-33.36-.41-11.28-4.14-21.91-10.17-31.54-13-20.73-31.71-33.77-54.7-41.45-34.18-11.43-69.07-20.09-104.36-27.09-42.32-8.39-84.74-16.23-127.13-24.25C2076.07,1396,2071.18,1395.45,2066.33,1394.74ZM828.89,1146.68l1.14-3c-1.41-1.17-2.67-3-4.25-3.37-6.69-1.32-13.45-2.32-20.22-3.19-17.81-2.31-35.7-4.07-53.43-6.81-35.72-5.52-71-4.41-105.83,5.59-10.84,3.1-21.31,7.34-29.29,15.5-10.52,10.77-21.93,21.16-30.23,33.54q-30.94,46.08-59.24,93.94c-19.6,33.11-38,66.94-56.43,100.73-12,22.09-23.74,44.4-34.63,67.07-12.61,26.23-24.07,53-36.18,79.49-16.75,36.63-33.89,73.09-50.27,109.88-3.75,8.42-6.76,17.82-7.21,26.91-1.21,24.31,2.88,47.7,21.53,65.46,10.6,10.09,21.45,20.82,34.13,27.63,15.36,8.25,32.46,13.82,49.38,18.49,29.42,8.11,59.28,14.66,89,21.77a33.51,33.51,0,0,0,6.39.44c8.89-25.66,17.51-50.57,26.23-75.73-21.36-5.8-42.54-11.37-63.61-17.33-12.45-3.52-24.5-9.11-37.15-11.17-17.47-2.84-32.72-10.74-48.54-17.46-8.35-3.54-14.41-10.2-16-19.13a122.2,122.2,0,0,1-2.14-27.9c1.23-24.31,11.12-46,22.94-66.71,5.85-10.27,14.87-16.22,26.94-17.51a219.53,219.53,0,0,0,24.47-4c4.44-1,9.33-2.51,12.7-5.35,18.58-15.69,33.88-33.94,44.55-56.17,8.08-16.82,17.78-32.87,26.87-49.2,7-12.55,14.27-24.91,21.11-37.52,5.83-10.74,11.18-21.73,16.82-32.57,5.14-9.89,11.22-19.38,15.38-29.65,7.58-18.69,13.09-38,15.2-58.26.81-7.77-1-13.23-8.42-16.7-4.87-2.28-9.37-5.37-13.94-8.24-11.77-7.4-14.33-14.25-7.91-26.19,9.88-18.38,20.63-36.25,34.28-52.27,9.82-11.53,22.15-18.14,36.65-21.16a375.16,375.16,0,0,1,145.8-1.42C819.84,1146,824.39,1146.19,828.89,1146.68ZM496.69,908.39c-13.74,8.32-26.49,15.77-39,23.64-37.44,23.63-75.08,47-112,71.36-19.18,12.67-37.06,27.31-55.44,41.18-8.61,6.49-10,15.61-7.71,25.31a46.29,46.29,0,0,0,12.19,22.53c8.43,8.49,21.79,10.88,31.83,5.39,10.41-5.68,20.84-11.37,31-17.5,24.92-15,49.35-30.91,74.59-45.37,33.13-19,64.84-40.1,96.29-61.66,7.68-5.27,9.12-7.33,6.72-15.9C529.21,936,516.47,919.7,496.69,908.39ZM1481.06,360c2.17-1.13,3.78-1.81,5.22-2.74,26.54-17.21,53.2-34.24,79.53-51.77,17.65-11.75,34.78-24.28,52.22-36.36,4.92-3.41,8.83-7.28,9.46-13.64a43.61,43.61,0,0,0-8.89-31.39c-3.51-4.69-8.33-7.34-14.13-4.6-7.75,3.65-15.61,7.29-22.72,12q-44,29.22-87.49,59.13c-11.85,8.11-23.4,16.67-35,25.09a22.88,22.88,0,0,0-3,3.33C1470.3,329.06,1478.32,342.57,1481.06,360Zm-318.88,844.91c-5.81-1.51-10.55-3.13-15.43-3.91-9.93-1.6-20-2.28-29.87-4.16-22.53-4.28-45-9-67.44-13.65-28.47-5.94-56.9-12.09-85.37-18-15.48-3.22-31.05-6-46.53-9.28-4.33-.9-7-.41-7.29,5.51,11.83,2.43,23.73,5,35.69,7.31,18,3.48,36,7.11,54,10,23,3.75,46.24,6.11,69.11,10.48,27.88,5.33,55.48,12.13,83.21,18.29C1155.27,1208.16,1158.41,1210.22,1162.18,1204.86ZM1894.35,1362c-44.89-10.93-89.42-22.78-135.19-28.73C1804,1344.36,1848.78,1355.37,1894.35,1362Zm34.45,7.16c17.55,8.26,99.91,22.78,112.63,19.89Zm-364.61,1167-14.73-21.22-9.41,6,17.48,19.69Zm-75.69,25.35,13.84,20.19,7.06-5.78-14.65-19.52Zm55.92-10.09,6.62-5.56L1534,2525.54l-4.61,3.56Zm-5.68,5.21c-4.93-7.22-9-13.34-13.27-19.36-2.06-2.92-4.31-3.7-6.35.12C1533.06,2555.67,1533.06,2555.67,1538.74,2556.63Zm-20.06,14.43.63-2.33c-6.15-5.55-8.54-14.74-19.25-19.15,5.23,8.33,9.1,14.84,13.43,21C1514.13,2571.53,1516.9,2571,1518.68,2571.06Zm-5.47-30.24c-4.24,5.06-1.7,7.43.46,9.84,2.4,2.68,4.81,5.34,7.28,7.94,1.93,2,4,4,6,6l1.55-1.57ZM1744.77,1330l.33-1.44-6.69-.38-.09,1.26Zm-184,1186.55c.91-3.77.94-6.94-5.48-8.11Z"/><path d="M1079.07,1063.05c-31.13,27.77-67.89,41.32-110.27,39.21-4.64-.23-9.28-.39-13.9-.74a8.34,8.34,0,0,1-7.88-6.33c-1.22-4.38,2.15-6.44,5.21-8.38,9.42-6,19.09-11.57,28.29-17.86,20.94-14.33,37.49-33.21,53.71-51.31-7.64-7.87-14.87-14.72-21.42-22.17q-42.07-47.79-41.21-111.56c.11-7.87-.23-15.74-.1-23.6.37-22.56,9-42.82,18.28-62.73,24.91-53.12,63.69-93.44,114.14-122.94,25.07-14.66,52.13-24.15,80-31.57,16.34-4.35,32.71-8.56,49.19-12.32,25.8-5.88,52.05-6.68,78.38-5.74,30.71,1.1,59.27,10.25,87.09,22.71,20.15,9,39.32,19.86,56.2,33.81a162.2,162.2,0,0,1,47.35,64.67c9.77,24,10.8,48.94,10.71,74.19-.1,29.49-9.61,56.8-22.15,82.68-6.93,14.32-17.66,27.12-28.18,39.31-31,35.85-70.29,60.32-113.36,78.67-29.73,12.66-59.75,25.18-90.64,34.46-43.12,13-87.32,22.11-132.9,16.48C1110.37,1070.1,1095.37,1066.24,1079.07,1063.05Zm1.08-18.7c19,3.31,36.2,6.61,53.53,9.25,19.37,3,38.73,1.41,57.78-2.54,23.2-4.81,46.48-9.52,69.26-15.91,17.25-4.83,33.84-12.05,50.6-18.51,38.07-14.67,74.6-32.26,106.6-58.07,30.76-24.81,55.17-53.83,67.53-92.61,8.91-27.93,10.23-55.89,6.57-84.19-4-31.44-19.17-58-42.5-79.11-11.62-10.52-25-19.54-38.61-27.3-21.25-12.08-43.71-21.76-67.85-27-23.42-5.11-47-5.47-70.81-3.9-43.21,2.84-84.51,14.83-124.41,30-65,24.74-113.36,68.72-143.91,132.35C987.28,841.47,983.54,877,989.33,914a142.39,142.39,0,0,0,30.43,68.2c8.11,10,17.77,18.74,26.6,28.17,6.79,7.24,7.09,10,1.33,17.8-4.25,5.79-8.48,11.83-13.79,16.56-13.69,12.2-28,23.72-42,35.56-3.35,2.83-7.65,4.81-9.95,10C1023,1089.24,1053.65,1068.79,1080.15,1044.35Z"/><path d="M984.81,2295.64c-10,4.36-18.5,7.94-26.87,11.72q-18.66,8.43-37.19,17.1-53.24,24.87-106.43,49.79Q740,2408.87,665.6,2443.36c-17.93,8.34-35.85,16.67-53.71,25.14-9,4.26-12,3.64-18.83-3.52-8.86-9.33-14.12-20.81-19.51-32.15-13.92-29.22-28-58.38-41.11-87.95-13-29.24-24.93-58.94-37.22-88.49-2.71-6.49-5-13.18-8.06-21.47,1.1-3.77,4.89-7.89,10.21-10.7,36.87-19.44,73.38-39.64,110.74-58.1,40.6-20.06,81.81-38.9,123.1-57.5q48.66-21.91,98.23-41.77c15.27-6.12,31.56-9.64,47.25-14.79,6.48-2.12,10.38.14,13.28,5.53,7.68,14.23,16.12,28.13,22.77,42.83,10.06,22.26,19.24,44.95,28.11,67.72,10.71,27.46,20.87,55.14,30.95,82.84,4.29,11.8,7.89,23.85,11.59,35.86C984.32,2289.85,984.43,2293.11,984.81,2295.64Zm-209.09,3.89c1.95-5.33,3.67-10,5.4-14.7,4.35-11.81,8.1-23.89,13.17-35.37,24.58-55.62,49.56-111.06,74.25-166.63,2.61-5.87,4.29-12.16,6.72-19.21-124.39,56.15-248.44,108.53-370.12,170.23C595.39,2258.78,684,2282.5,775.72,2299.53Zm-60,.19c-37.15,48.67-66.82,100.94-99.52,151.22,28.19-12.81,55.63-26.18,83.2-39.26,27.91-13.23,56-26.08,83.93-39.25,27.63-13,55.11-26.38,82.76-39.35,27.85-13.06,55.83-25.82,84.85-39.22-50.24-12.07-99.92-17.69-149.51-22.42-5,10.35-10.21,20.57-14.87,31-3.56,8-10.45,9.31-17.65,9.27-5.31,0-10.69-1.37-15.92-2.62C740.46,2306.13,728,2302.85,715.69,2299.72ZM597,2455c37.49-52.47,69-106.58,108.6-154.91l-203.43-55.85C534,2315,565.07,2384,597,2455Zm371.55-171c-4.34-24.74-74.32-201.86-84.32-214.43-21.82,65.39-55.67,126-79.66,192.16,28,3,55.12,5.29,82,8.94S940.39,2279.34,968.54,2284Z"/><path d="M1360.12,2153.61c.62,25.71-8.23,47.73-25.36,66.85-22.68,25.32-50.55,41.29-83.94,47-12.75,2.2-25.67,1.8-38.35-2.57-26.63-9.18-51.44-21.15-68-45.08-20.64-29.78-31.4-62.26-23-98.8,3.68-16,10.73-30.59,23.37-41.74,10.23-9,20.24-18.37,31.07-26.61,16.77-12.74,36.25-17.79,57.11-20.37,25.4-3.15,46.81,4.13,68.49,16.68,37.88,21.93,55.7,54.56,58,97.09C1359.65,2148.61,1359.92,2151.11,1360.12,2153.61ZM1164,2085.29c-19.22,13.83-29.79,38.43-26.68,61l39.2-4c2.11-14.92,4.11-29,6.23-44Zm-27,70c4.16,22.71,11.84,42,25.26,57.78l21.39-13.45c-2.64-14.63-5.3-29.29-8-44.33Zm161.67,3h-51v28.58l45,8.36A83,83,0,0,0,1298.62,2158.27Zm-50.79-38.93v24.35c17.53,0,34.18,1.36,51.33-.74-.61-12.42-.87-23.66-5.36-33Zm40.76-24.57c-8.4-20.3-20.91-34.95-40.75-43v52.93C1262.29,2103.7,1275.6,2102.2,1288.59,2094.77Zm-55.86,92.54v-30.87h-42.37c-.52,12.33,1.67,24.38,5.84,37Zm82.12-30.46c-1.19,8.14-1.95,15.56-3.44,22.84-1.56,7.62-3.83,15.1-6,23.4l14.53,7.81c17.48-16.7,26.82-40,22.9-55.58Zm-82.15-14.43v-25.5l-37.14-11.77a88,88,0,0,0-4.51,37.27Zm75.15-42.17c2.51,13.51,5,26.77,7.5,40.27h28.26c-2.55-19.44-6.94-37-18.85-52.09Zm-22.49,110.48a84.87,84.87,0,0,0-37.67-7.06v47.17c6.55-1.17,12.13-1.44,16.19-6.45C1272,2234.33,1279.64,2224,1285.36,2210.73Zm-49.13-160.1-2.52-.84c-15.62,11.07-27.69,24.95-34.53,44.46,11.2,4.23,21.47,8.82,33.62,8.31C1234,2084.69,1235.1,2067.66,1236.23,2050.63ZM1199.05,2207c7.86,18.24,16.92,33.11,32.72,44.66V2201.8Zm9,37.63-20-32.54c-6.43,2.54-13.11,3.85-17.09,10.74A94.23,94.23,0,0,0,1208.07,2244.59Zm-21.35-156.29c5.83-10.41,11.3-20.2,18-32.25-13.67,6.67-24.63,13.08-34.53,22.69Zm94.84-32.65,21.18,31,12.12-9.73C1305.49,2066,1293.87,2060.51,1281.56,2055.65Zm28.12,167-11.87-5.62-9.75,17.73,1.72,1.42Z"/><path d="M2373.46,1330.23c1.64-.31,2.54-.21,3-.62,13.52-12.13,18.67-39,9-53.59-11.43-17.18-26.11-30.83-47.8-34-20.54-3-38.92,2-53,17.61-8.78,9.8-13.16,22.28-14.52,35.42-2.35,22.7,1,43.78,17.93,61,7.44,7.57,16.17,12.3,26.63,12.57,11.1.28,22.23-.58,33.35-.94,2.87-.1,5.76-.47,8.62-.3,5,.29,9.32,2.18,10.28,7.72.92,5.33-1.66,9.35-6.58,11.07-4.35,1.51-9.06,2.8-13.61,2.8-13.23,0-26.64.49-39.66-1.42-23-3.36-37.74-18.59-47.71-38.39-15.42-30.62-13.2-61.2,2.43-91.13,16.85-32.26,51.67-40.67,81.79-37.48,29.29,3.11,65.51,38.77,65,74.58-.07,5-.11,10.39-2,14.81-4.68,10.85-10.41,21.25-15.81,31.78a15.43,15.43,0,0,1-2.8,3.28c-11.22,11.76-23.16,10.93-32.48-2.33-1.83-2.6-3.26-5.48-4.43-7.47-8.5,3.65-16.39,7.89-24.8,10.45-13.12,4-24.38-1.34-30.6-13.51-8.3-16.21-7.8-32.78-.23-48.88,8-17,23.86-23.15,41.47-16.88,5.09,1.81,9.21,3.61,15.09.58,7.31-3.77,15.76,2.33,17,11.34.78,5.68.41,11.5.7,17.25.45,9,.89,18,1.63,26.93C2371.51,1325.17,2372.73,1327.73,2373.46,1330.23Zm-67.67-24.08c1.38,5,2.3,10.76,4.5,15.92,3.38,7.92,9.49,10.06,17.61,7.17,12.26-4.35,18.84-20.37,14.06-34.2-3-8.6-9-12.74-18.88-13-7-.19-11,2.91-14.36,12C2307.37,1297.65,2306.86,1301.59,2305.79,1306.15Z"/><path d="M1772.93,2318.14c-34.45-18.89-42.07-22.66-84,1.55-6.65-2.18-9.38-7.67-9.65-14-1.48-34.48-3.29-69-3.6-103.47-.22-23.86,11-37,33.95-43.85,14.47-4.33,29.13-5.25,43.4.17,6.59,2.5,12.47,6.89,18.37,10.26,8.33-3.8,16.66-9,25.74-11.45,20.56-5.52,39.85-1.38,57,11.33,8.39,6.2,11.91,15.32,12.93,25.21a451.56,451.56,0,0,1,1.13,83c-.67,8.24-.37,16.55-.71,24.82s-1.68,9.84-10.26,10.41c-3.48.24-7.41.2-10.5-1.15-24.88-10.81-48.41-7.32-71.2,5.94C1774.93,2317.26,1774.25,2317.52,1772.93,2318.14Zm78.77-22.07a44.24,44.24,0,0,0,1-5.75c.47-18.68,1.2-37.36,1.17-56,0-12.18-1-24.37-1.89-36.53-.64-8.45-2.68-16.48-11.14-20.83-16.61-8.54-33.56-9.79-51-2.41-7.5,3.18-12.6,7.76-12.12,16.81.2,3.9-.92,7.86-1,11.8q-.65,33.42-1.06,66.84c-.12,8.84,0,17.69,0,26.56,13.59-3,25.63-6.61,37.93-8.09C1826.55,2286.88,1839.18,2290.24,1851.7,2296.07Zm-159.41,2.73c24.7-12,47.63-16,71.33-.41,0-4.17,0-6.61,0-9-.06-31.27-.6-62.55.11-93.8.2-8.87-2.51-14.75-9.65-18.55-4.94-2.63-10.58-5.2-16-5.4a86.82,86.82,0,0,0-24.5,2.6c-17.23,4.44-22.87,12.3-23.07,30.24-.16,14.41-.21,28.82.08,43.22C1690.91,2264.13,1691.66,2280.6,1692.29,2298.8Z"/><path d="M241.36,1526.32c-.62,6.73-1,11.74-1.6,16.71a70.4,70.4,0,0,1-2.18,11.58c-1,3.39-2.49,7-7.12,7-5,0-8.58-2.56-9.63-7.17a197.88,197.88,0,0,1-3.29-21.29c-.43-3.81-.07-7.72-.07-13.68-6.1,3.62-10.53,6.42-15.11,8.93a76.69,76.69,0,0,1-11.56,5.56c-4.4,1.54-8.56,1-11-3.88-2.32-4.55-1.66-8.59,3.49-12.11,4.71-3.22,10.12-5.42,15.25-8,3.14-1.58,6.35-3,10.71-5.11-7.11-4.12-13.26-7.47-19.19-11.19a41.38,41.38,0,0,1-8.35-6.72c-4.78-5.17-4.9-8-1.38-12.2,4.19-5,8.86-6,14.14-2.4,7.09,4.8,14,9.86,21.7,15.32,1.38-14.57-2.54-29.16,8-40.47,12.21,3.55,15.18,7.48,15.48,20,.12,5.21,0,10.43,0,16.76,3.69-2.21,6.53-4.33,9.7-5.72,4.23-1.87,8.68-4.17,13.11-4.37,3.37-.15,8.27,1.83,9.9,4.46s1.14,7.78-.35,10.91c-1.58,3.31-5.21,5.81-8.33,8.15s-6.73,4.09-11.15,6.7c3.92,2.89,7.51,5,10.41,7.8a59.89,59.89,0,0,1,9.64,11.43,9,9,0,0,1-1.7,11.86c-3.4,3.17-7.2,2.87-11,.92C254.17,1533.15,248.53,1530.1,241.36,1526.32Z"/><path d="M246.6,1603.43c1.36-14.08-2.3-28.3,7.59-39.45,12.37,2.67,15.55,6.45,15.87,19.25.14,5.32-.51,10.66-.87,17.31,3.37-1.8,5.71-3.19,8.16-4.34,4.2-2,8.34-4.29,12.75-5.59,6.19-1.81,11,0,13.22,4.26,2.66,5.21,1.11,9.89-2.75,13.78a50.53,50.53,0,0,1-7.59,5.95c-3,2-6.1,3.72-10,6.05,4.2,3.11,8.11,5.45,11.32,8.52a49.62,49.62,0,0,1,8.79,10.73,9.05,9.05,0,0,1-1.86,11.84c-3.43,3.12-7.2,2.79-11,.82-5.67-2.93-11.3-5.94-18.27-9.62-.62,6-.94,10.87-1.66,15.67-.68,4.58-1.18,9.35-2.9,13.57-1,2.52-4.32,5.87-6.44,5.76a12.54,12.54,0,0,1-8.58-5.09c-2.06-3.11-2.66-7.4-3.14-11.27-1-7.8-1.43-15.67-2.24-25.14-5.5,3.28-10.17,6.35-15.11,8.92a70.75,70.75,0,0,1-12.77,5.29c-3.75,1.08-7-.35-8.94-4.18-2.15-4.17-1.39-7.86,1.93-10.71a44,44,0,0,1,9-5.76c5.73-2.88,11.64-5.41,18.64-8.63-6.84-3.95-12.71-7.17-18.38-10.69a45.57,45.57,0,0,1-8.53-6.5c-5.54-5.6-5.86-8.53-2.18-13,4.58-5.52,8.92-6.12,15-1.9,5.32,3.7,10.51,7.57,15.81,11.3A58,58,0,0,0,246.6,1603.43Z"/><path d="M2276.55,1022.81c-1.55,13.93-2.79,27.9-4.75,41.77-1.53,10.85-6.86,18.79-18.74,20.72-11,1.78-21.13.85-27.83-9.29-3.5-5.31-7.26-11.07-8.53-17.12-4.43-21.19-6.49-42.73-3.52-64.31a75.85,75.85,0,0,1,6.77-21.44c4.19-8.88,11.15-15.64,21.81-14.82,11.52.89,21.7,4.86,26.83,16.75,5.7,13.19,6.31,27.2,7.3,41.17.16,2.15,0,4.32,0,6.48Zm-50.8-9.37c1,11,1.22,20.41,2.85,29.59,1.3,7.34,4.14,14.45,6.63,21.54,1.4,4,4.29,6.53,9,6.43s8.48-1.8,10.46-6.23a41.61,41.61,0,0,0,3.19-9.13c3.38-18.1,5.65-36.3,1.9-54.61a93.48,93.48,0,0,0-5.07-17.46c-2.7-6.42-8-10.63-15.26-9.76s-9.38,7.33-10.39,13.45C2227.5,996.45,2226.68,1005.76,2225.75,1013.44Z"/><path d="M2248.14,1122.07c3.7,2.25,5.44,4.06,7.41,4.36,4.61.72,9.34.59,14,1,3.85.37,7.8,2,7.24,6.26-.29,2.26-4,5.7-6.33,5.83-17.58,1-35.19,1.44-52.8,1.76-3.3.06-7.16-1.58-6.2-5.65a10.48,10.48,0,0,1,5.89-6.45c4.7-1.57,9.88-1.77,14.87-2.39,3.27-.4,5.61-1.38,4.57-5.79-6.17-2.08-12.84-3.64-18.83-6.57a40.34,40.34,0,0,1-12.58-9.63c-13.41-15.61-18-34.88-21.42-54.52-.3-1.74-.55-4,.27-5.3,1.35-2.17,3.48-5.09,5.5-5.27s5.58,2.07,6.37,4.08c2.2,5.64,3.15,11.76,4.92,17.6a164.26,164.26,0,0,0,6,17.33c8.3,19.26,28.36,26.63,44,24.51,13.44-1.81,21.65-11.21,26.63-22.88,3.92-9.18,6.1-19.11,9-28.71.83-2.75,1.19-5.7,2.37-8.28,1.92-4.2,6.26-4.69,8.1-.61,1.67,3.7,3.06,8.54,2.1,12.24a378.5,378.5,0,0,1-11.61,37c-4.67,12.53-14.19,20.51-26.76,24.94C2257.31,1118.17,2253.83,1119.75,2248.14,1122.07Z"/><path d="M1650.72,174.49c.21-3.39-.24-7,.75-10.12,4-12.67,7.84-25.46,13-37.69,5-12,14.8-18.19,28.14-18a25.06,25.06,0,0,1,3.24,0c27.17,3.89,46.27-10.16,62.21-29.32,9.37-11.26,16.71-24.21,25-36.38,3.63-5.34,7.17-10.78,11-15.94,11.71-15.58,27-24.25,46.87-24.73C1853.49,2,1866,.56,1878.59,0c4.1-.18,8.24.81,14.87,1.54-3.71,2.79-5.09,4.22-6.77,5-15.54,7.42-32,11.22-49.16,10.31-14-.75-24.49,4.43-32.55,15.31-4.7,6.34-9.1,12.91-13.48,19.48q-10.14,15.26-20.06,30.67c-9.46,14.66-23.36,24.21-37.77,33.25-11.82,7.42-24.69,6.88-37.67,5.12-15-2-19.73.52-25.41,14.78-4.25,10.69-8.1,21.55-12.31,32.26-1.08,2.76-2.82,5.26-4.25,7.88Z"/><path d="M1653.72,304.21c12.32,4.74,5.71,14.86,9.32,21.54,6.55,2.35,12.51-1.48,18.77-2,5.34-.47,10.82-1.77,16-1.05,12.75,1.78,18.66,11.05,21.79,22.48,1.33,4.85,2,9.88,3.18,14.76,3.93,15.65,11.39,20.68,27.51,18.51,8.17-1.1,16.27-2.8,24.46-3.67,18.16-1.93,32.23,6.26,43,19.81,7.33,9.23,13,19.77,19.19,29.91,1.48,2.45,1.77,5.62,3.06,10-14.07-3.18-22.33-10.67-28.41-20.67a76.22,76.22,0,0,0-19.43-21.37,24.64,24.64,0,0,0-20.25-4.85c-8.84,1.56-17.65,3.37-26.55,4.56-18.7,2.48-29.49-4-35.71-21.73a104.92,104.92,0,0,1-4.37-19.91c-2.08-14.54-5.09-17.23-19.75-15.4-5.67.71-11.2,2.49-16.84,3.55-13.62,2.57-21-4.46-18.77-18.07C1650.77,315.41,1652.29,310.31,1653.72,304.21Z"/><path d="M1923.77,250.41c-2.13,6-5.62,7.35-9.93,6.15-7.59-2.1-15.55-3.64-22.5-7.11A213.62,213.62,0,0,1,1862,231.63c-8.67-6.25-17.13-8.37-27.19-4.21-11.62,4.81-23.39,9.24-35.14,13.73a118.32,118.32,0,0,1-11.26,3.67c-15.67,4.23-27.74-1.17-35.11-15.35-2.74-5.27-5.87-10.34-9.63-16.89l-14.37,11.86c-5.82,4.8-11.31,10.11-17.59,14.19-3.68,2.38-8.58,3.52-13,3.89-4.1.34-7.53-2.24-8.82-6.57-1.22-4.07-2.58-8.26,2.79-11.83l6.51,8.67c3.29-1.8,6.89-3.21,9.82-5.48,7.1-5.52,13.86-11.47,20.8-17.19,11.73-9.66,20.71-8.72,30.35,3.2a75.73,75.73,0,0,1,5,7.05c6.27,9.9,12.18,12.37,23.49,9,12.4-3.67,24.64-7.87,37-11.52,6.18-1.82,12.51-3.73,18.87-4.12,5.51-.34,11.88,0,16.62,2.44C1882.1,227.06,1902.66,238.78,1923.77,250.41Z"/><path d="M333.85,1215.74c-5.43-6.69-11.48-11.51-13.67-17.7-1.63-4.61.85-11.39,3.08-16.51,4.67-10.73,13.82-15,27.06-12.69-2.88,2.41-4.6,4.57-6.84,5.57a23.59,23.59,0,0,0-11.83,12.07c-3.36,7.1-2.1,10.91,4.57,15.31,12.13,8,13.18,13.48,5.09,25.72-4.76,7.2-9.56,14.39-14,21.78-5.79,9.61-6.22,18.88,2.32,27.5,11.09,11.2,10.74,23.25,3,36.36-10.28,17.43-21.71,33.91-35.5,48.77-5.84,6.3-11.15,13.09-16.72,19.67-6.12-3.3-7.77-5.51-5.13-11.27,3.1-6.76,7.38-13.07,11.73-19.16,11.06-15.51,22.76-30.56,33.56-46.25,6.74-9.78,6.54-12.42-1.45-20.75-12.09-12.6-12.23-26.13-4.47-40.47,3.57-6.61,8.15-12.68,12.4-18.91C329.24,1221.56,331.74,1218.53,333.85,1215.74Z"/><path d="M218.53,1040.85c-3.87,10.22-7.21,12.29-15.41,8.9-7.27-3-14.1-7.11-21.09-10.79-3.09-1.62-6.1-3.41-9.64-5.4-2.22,3.34-4.13,5.88-5.71,8.61-9.23,15.95-22.24,28.1-37.75,37.73-11.05,6.87-16.2,6.39-26.07-2.19-1.9-1.65-3.44-3.71-5.38-5.29C92,1068,84,1063.9,74.63,1069.62a132.51,132.51,0,0,0-14.07,9.92c-13.23,10.67-27.31,19.92-43.13,26.26-5.07,2-10.46,5.16-17.43-.12,5.09-4.22,9.36-8.4,14.23-11.68,15.51-10.43,31.21-20.56,46.89-30.72,16.74-10.85,30.45-10.14,46.58,2.27,7.93,6.11,8.29,6.18,17,.58,12.5-8.1,23.32-18,31.61-30.45q1.49-2.25,3.08-4.43c7.12-9.7,11.25-10.74,21.92-5.52,1,.47,1.92,1,2.87,1.5C195,1033.16,204.79,1041.59,218.53,1040.85Z"/><path d="M69.22,1303.74c-2.27-5.5,0-8,3.61-9.67,21.48-9.79,34.11-27.67,44.94-47.66a239.23,239.23,0,0,1,21.73-33.25c4-5.08,10.36-9.19,16.5-11.4,6.68-2.4,9.44-6.53,11.84-12.47,4.68-11.62,9.1-23.51,15.33-34.3,8.28-14.36,20.77-18.79,36.86-15.25,1.25.28,2.36,1.22,4,2.09-2.57,4.91-6.44,6.2-10.85,6.16-11.6-.11-19,6.26-23.41,16.06a244.48,244.48,0,0,0-11,29.18c-3,9.76-7.38,16.66-18.69,17.78-8,.79-13.78,6.27-17.66,13-5.93,10.24-11.32,20.81-16.7,31.37-6.59,12.91-14.09,25.25-25.52,34.37-6.09,4.87-13.16,8.66-20.18,12.15C76.84,1303.49,72.67,1303.21,69.22,1303.74Z"/><path d="M1594.51,2281.74c-6.5,10-70.41,77.67-76.12,80.8-2.41-6.52,1.17-11.29,4.73-15.32,12.59-14.23,25.15-28.55,38.61-41.93,7.81-7.77,17.28-13.87,26.11-20.58C1589.38,2283.54,1591.46,2283.07,1594.51,2281.74Z"/><path d="M1764.44,2705.46,1671.62,2685c1.89-4.52,5.31-5.32,8.83-4.95,28.4,3,56.34,7.78,81.7,22C1762.91,2702.51,1763.25,2703.66,1764.44,2705.46Z"/><path d="M1750.29,2737.82c-27.77-11.62-55.55-23.21-83.25-35-1.28-.55-1.84-2.77-4-6.33,34.06,7,63,19.48,88.76,39.39Z"/><path d="M1508.8,2337.2c-5.79-3.71-7.12-8.48-6.17-12.87,3.79-17.52,8-35,19.64-49.45.59-.73,1.69-1.07,3.33-2.06.53,2.38,1.76,4.55,1.24,6.12C1520.45,2298,1518,2318.34,1508.8,2337.2Z"/><path d="M1699,2751.33c-16.27-3.9-26.73-14.47-39.65-23.76C1671,2726.48,1692.53,2739.47,1699,2751.33Z"/><path d="M1489.78,2300.17c3.92,12.51,3.45,23.77,3.17,36.4-6.13-2.52-7.84-6.23-7.66-10.56.28-7.1,1.09-14.2,1.87-21.27C1487.29,2303.56,1488.41,2302.49,1489.78,2300.17Z"/><path d="M1169.63,1518.74c6.57,1.42,13.19,2.64,19.7,4.3,40.81,10.38,81.82,19.86,123.71,24.55,19.61,2.2,39.47,2.32,59.22,3.25,39.23,1.85,76.45-7.4,112.46-21.7,19.76-7.84,34.15-21.26,35.61-44.42a17.1,17.1,0,0,1,1-4.17,32.27,32.27,0,0,1,1.7-3.46c6.19,4.73,8.83,10.18,7.31,17.65-2.09,10.17-6.63,19.47-14,26.28-7.53,7-16.18,13.72-25.58,17.49-27.06,10.85-55.12,19-84.32,21.53-16.08,1.37-32.35,1.13-48.52.69a495.45,495.45,0,0,1-97.23-12.33c-26.6-6.08-52.8-13.94-79.09-21.32-4.54-1.27-8.65-4.07-13-6.16C1169,1520.2,1169.31,1519.47,1169.63,1518.74Z"/><path d="M1059,1397.38c-2.48,2.73-4.92,5.49-7.44,8.18-13.62,14.54-14.38,32-2.13,47.66,7.75,9.89,18.3,16,29.07,21.85a210.74,210.74,0,0,1,20.62,12.75l-.77,2.08c-1.91,0-4,.55-5.72-.08-21.11-8.08-40.65-18.44-53.12-38.45C1027.39,1431.9,1036.82,1403.76,1059,1397.38Z"/><path d="M717.29,1589.57c16.26,3.12,25.65,14.44,31.17,29.06,3.79,10,4.91,20.65-4.49,30.33-.86-8.14-1.18-15.15-2.4-22-1.86-10.4-7.91-18.18-16.23-24.6-3.85-3-6.81-7.08-10.18-10.68Z"/><path d="M684.37,1572.17a46,46,0,0,1-4.76,2.15c-2.39.76-4.88,1.21-7.3,1.91-14.21,4.1-14.95,4.67-22,16.6-5.1-5.37-5.45-8.38-1.68-14.49C655.44,1567.3,669.65,1563.53,684.37,1572.17Z"/><path d="M778.57,1332.69c8.23-1.86,9.91,6.62,15.29,7.56,5.07.88,10.34.61,16,.86C797.61,1351.19,787.71,1348.52,778.57,1332.69Z"/><path d="M761.3,1322.16l17.44,26.76C766.49,1346.6,760.09,1337.69,761.3,1322.16Z"/><path d="M839,1343.39c-12.28,14.69-21.07,17.68-30.1,12Z"/><path d="M514.67,1420.58c1.25-3.88,2-7,3.24-9.92a265.06,265.06,0,0,1,27.16-48.77c2.37-3.35,4.77-7,9.42-5.17,4.94,1.94,5.48,6.73,4.09,11a126.57,126.57,0,0,1-8.23,19.8c-6.06,11.38-12.74,22.43-19.22,33.58-.89,1.54-1.86,3.42-3.3,4.16-2.63,1.35-6.13,3.32-8.35,2.51S516.19,1423,514.67,1420.58Z"/><path d="M554.62,1330.27c0-6.68,5-13.06,10.3-13.11,6.53-.06,12.2,5.26,12,11.24S570,1341,564.29,1341C558.93,1341.11,554.66,1336.35,554.62,1330.27Z"/></g></g></svg>