<svg id="Layer_1" data-name="Layer 1" xmlns="http://www.w3.org/2000/svg" viewBox="0 0 239.68 659.3"><defs><style>.cls-1{fill:#fff;}</style></defs><path d="M66.72,655.09,65,657.39a2.29,2.29,0,0,1,.16-2c1-2.67,2.07-5.33,3.07-8,1.72-4.61,3.35-9.25,5.13-13.84,1.43-3.7,3-7.35,4.53-11q2.43-5.82,4.87-11.64a5.82,5.82,0,0,0,.67-2.75,2.91,2.91,0,0,1,.18-1.16c.81-2.41,1.55-4.84,2.49-7.2a682.63,682.63,0,0,0,26.6-80.42c3.71-14.3,6.87-28.71,9.39-43.27,1.64-9.47,3-19,4-28.53.69-6.39,1.11-12.81,1.63-19.22.16-1.9.33-3.81.36-5.71.06-3.65,0-7.3,0-10.95a8.57,8.57,0,0,0-.07-1.43c-.71-4.58-.39-9.19-.3-13.79a48,48,0,0,0-.44-8.8,7.51,7.51,0,0,0-1.16-3.32,4.67,4.67,0,0,1-.57-1.54A79.36,79.36,0,0,0,121,370.32a70.62,70.62,0,0,1-5.59-19.14,84.89,84.89,0,0,1-.38-19.25c.82-10.26,3.2-20.22,5.7-30.15.38-1.54.76-3.09,1.25-4.59.26-.82.76-1.55,1.1-2.34a16.3,16.3,0,0,0,.79-2.22c.32-1.3.46-2.66.85-3.94,1.66-5.38,3.5-10.71,5-16.13a163.44,163.44,0,0,0,4.28-16.34,77.17,77.17,0,0,0,1.12-9.93c.11-2.7.1-5.41.21-8.1,0-1.18.26-2.36.4-3.53a3.47,3.47,0,0,0,.1-.7c-.2-2.84,0-5.72-1-8.48a10.14,10.14,0,0,1-.4-2.34q-1.07-10.3-2.11-20.62a28.34,28.34,0,0,0-2.14-8,78.35,78.35,0,0,1-2.8-7.33,75.94,75.94,0,0,1-2-8.57,22.88,22.88,0,0,1,.15-8.53,15.84,15.84,0,0,1,4.77-8.61,21.05,21.05,0,0,1,15.32-6,20.17,20.17,0,0,1,11.69,4.17,22.16,22.16,0,0,1,6.84,8.11c.81,1.64,1.63,3.28,2.34,5,1.8,4.31,3.54,8.66,5.32,13,.42,1,.95,2,1.41,3a19.07,19.07,0,0,1,1,2.37c1.42,4.8,2.91,9.57,4.15,14.41,1.13,4.38,2.07,8.8,2.91,13.24a53.79,53.79,0,0,1,.86,7.8c.14,3.25,0,6.51,0,9.77a5.81,5.81,0,0,1-.56,2.72,3.64,3.64,0,0,0,0,2.68l4.11-2a9.77,9.77,0,0,1,3.35-1.13,10.42,10.42,0,0,0,2.69-.91q4.52-1.8,9-3.64a7.54,7.54,0,0,0,2-1.12,6.19,6.19,0,0,1,1.74-1,51.82,51.82,0,0,1,15.29-3.34,31.78,31.78,0,0,1,21.57,6.71,42.68,42.68,0,0,1,8.91,9.53c.9,1.31,1.78,2.64,2.58,4a31.06,31.06,0,0,0,9,9.67c1.68,1.19,3.46,2.25,5.24,3.28a49.9,49.9,0,0,1,7.3,4.92,28.82,28.82,0,0,1,10.28,19,40,40,0,0,1,.39,4.75,39.87,39.87,0,0,0,1.34,9.41c.77,3.08,1.62,6.14,2.25,9.25.58,2.87.85,5.81,1.37,8.69q.93,5.16,2.05,10.27c1,4.65,2.14,9.28,3.25,13.91a5.24,5.24,0,0,1,.06,2.58,2.24,2.24,0,0,0,.57,2.41h0c-.11.28-.34.57-.3.82.47,3.34.62,6.74,1.72,10.13l.33-.8c.07.07.21.14.21.21.1,2.46.26,4.92.24,7.38a54.59,54.59,0,0,1-5.62,23.64A84.92,84.92,0,0,1,259.13,425c-3.33,2-6.83,3.71-10.29,5.47-4.3,2.18-8.27,4.73-10.9,8.93a44.39,44.39,0,0,0-2.34,4.14c-2.15,4.42-4.3,8.85-6.31,13.34-1,2.23-1.75,4.59-2.54,6.92-1,2.92-1.85,5.9-2.9,8.81a25.65,25.65,0,0,0-1.32,9.36,26.47,26.47,0,0,1-.11,3.56c-.08.75-.48,1.46-.58,2.21a20.38,20.38,0,0,0,0,2.49,2.5,2.5,0,0,1,.67,3.48,1.6,1.6,0,0,0-.13.69,37,37,0,0,1-.81,5.84c-.46,2.8-.65,5.63-.93,8.46-.21,2.05-.36,4.11-.55,6.16a13.13,13.13,0,0,1-.29,1.88,19.12,19.12,0,0,0-.41,6.57c.09.85.34,1.72-.47,2.45a1.26,1.26,0,0,0-.16,1.1,4.06,4.06,0,0,1,0,2.51,7.91,7.91,0,0,0-.09,2.83,22.83,22.83,0,0,1-.35,7.74l1,1.18a9.45,9.45,0,0,0-.67,1.4,10.87,10.87,0,0,0-.18,1.41A26,26,0,0,0,218,551a12.47,12.47,0,0,1-.36,4.25c-.33,1.38-.58,2.79-.8,4.2a3.7,3.7,0,0,0,0,1.87,9.19,9.19,0,0,1,.36,3.52,54.35,54.35,0,0,1,.12,6.38,37.65,37.65,0,0,1-.56,4.47c-.47,2.24-.55,4.56-1.22,6.77-.36,1.18.58,2.39-.06,3.5s-.22,2.48-.54,3.72a15.49,15.49,0,0,0-.14,3.55c-.05,2.22-.06,4.44-.17,6.65a13.44,13.44,0,0,1-1.29,5.72,6.67,6.67,0,0,0-.17,5.33,4.94,4.94,0,0,1,.2,2.73c-.28,1.84-.48,3.7-.68,5.29a4.4,4.4,0,0,0-1.4-2.85c.11-1.52,1.45-2.81,1-4.5-.18-.75-.28-1.52-.49-2.7-.41.63-.74.9-.76,1.19-.2,2.68-.34,5.37-.52,8a6.1,6.1,0,0,1-.21.92,6.1,6.1,0,0,0,.19,3.73,3.85,3.85,0,0,1-.2,3.58l1.5-.54.1,1,.06-.06L209.67,628c-.45,5.36-.92,10.81-1.35,16.26s-.76,11.08-1.24,16.61-.72,10.9-1.36,16.5l-6.81-1c0-1,.08-1.87.13-2.78l-1.12-.18a13.22,13.22,0,0,1,0-5.09,4.11,4.11,0,0,0,0-3,2.73,2.73,0,0,1,0-1.62,99.42,99.42,0,0,0,1.62-12.75c.34-3.88.67-7.75,1.08-11.62a13.13,13.13,0,0,0,0-3.07,11.78,11.78,0,0,1-.17-1.17c0-.94,1.12-1.66.6-2.67s-.07-2,0-3,.26-1.88.4-2.83.26-1.88.4-2.83a3.55,3.55,0,0,0,.06-.47c0-2.61.62-5.15.65-7.77a9.36,9.36,0,0,1,1.46-5.64.86.86,0,0,0,.12-.66c-.7-2.26-.28-4.56-.17-6.82.16-3.17.67-6.31,1-9.47a3.58,3.58,0,0,0,0-1.85,4,4,0,0,1-.05-3.45,9.53,9.53,0,0,0,.49-3.26c0-1.06.54-2.1.19-3.22-.07-.21.32-.53.4-.82.11-.45.34-1.08.14-1.35-.65-.9-.37-1.84-.27-2.75.34-3.15.75-6.3,1.13-9.46.21-1.65.51-3.3.6-5a48.54,48.54,0,0,1,.91-5.63c.12-.68.18-1.33,1-1.75a1.08,1.08,0,0,0,.09-1.52c-1.47-1.69-1.6-3.68-1.37-5.76.06-.47.1-1,.2-1.41a51.53,51.53,0,0,0,1-7.31c.13-1.66.41-3.31.66-5a27.19,27.19,0,0,0,.65-6.57c-.13-1.54.51-3.13.5-4.69a23.39,23.39,0,0,1,.19-4.5,29.65,29.65,0,0,1,.77-4.42,9.71,9.71,0,0,0,.1-2.6,11.42,11.42,0,0,1,.24-3.06,11.41,11.41,0,0,0,.34-4.22,21.71,21.71,0,0,1,.59-7.09,5.93,5.93,0,0,0,0-2.34,43.16,43.16,0,0,1-.27-5.91,7.14,7.14,0,0,1,.84-2.24l-.57-1.15c.42-.71.82-1.39,1.24-2.06a4.88,4.88,0,0,0,.84-2.89,11.26,11.26,0,0,1,.67-3,1.89,1.89,0,0,0-.19-1.81,2.48,2.48,0,0,1-.31-2.26,14,14,0,0,1,.29-1.64c1.49-3.67,1.55-7.61,2.19-11.43.85-5,1.55-10,2.3-15.07.08-.54.1-1.09.15-1.67a4.35,4.35,0,0,0-2.58-.37c-4.68-.05-9.36-.05-14.05-.09-.94,0-1.89-.19-2.83-.23S199,442.05,198,442a9.47,9.47,0,0,1-2.55,0,18.46,18.46,0,0,1-.85-6.39,8.46,8.46,0,0,1,1.07-.4c5.25-1.22,10.49-2.47,15.81-3.41a109.59,109.59,0,0,0,30.4-10,5.52,5.52,0,0,1,1.07-.51,28,28,0,0,0,8-4.07A84,84,0,0,0,272.7,396.8c2.41-3.25,4.54-6.7,6.93-10a49.2,49.2,0,0,0,5.48-10.52c1.26-3.09,2.49-6.19,3.8-9.25a6.07,6.07,0,0,0,.3-4.14c-2.19-8.37-4.37-16.74-6.4-25.15-1.79-7.4-3.37-14.86-5.07-22.29-.58-2.55-1.2-5.1-1.91-7.62-.41-1.43-1-2.81-1.56-4.21a9.68,9.68,0,0,1-.42-1.36,26.84,26.84,0,0,1-.57-7.1,70.93,70.93,0,0,0,.12-7.14,27.44,27.44,0,0,0-1-5.61,12.42,12.42,0,0,0-6.08-7.62,22.26,22.26,0,0,0-5.52-2.17c-1.07-.28-2.15-.54-3.22-.85a15.07,15.07,0,0,1-6.57-4.14c-.21-.23-.54-.51-.54-.76,0-1.19-.92-1.77-1.52-2.56-.76-1-1.55-2-2.32-3a9.17,9.17,0,0,0-1.85-2.14,4.43,4.43,0,0,1-1.07-1.54c-1.15-2.09-2.29-4.18-3.37-6.3a25.78,25.78,0,0,0-4.64-6.31A18.85,18.85,0,0,0,224,239.41a10.2,10.2,0,0,0-2.14,0,79.93,79.93,0,0,0-23.74,5.65,45.13,45.13,0,0,0-8.55,4.67c-.76.54-1.61,1-1.93,2-.13.39-.61.7-1,1a58.55,58.55,0,0,0-15.41,17,46.58,46.58,0,0,0-3.18,6.11,11.48,11.48,0,0,0-.83,7c0,.15,0,.31.09.47a21.11,21.11,0,0,0,6.54,9.8,24.49,24.49,0,0,0,2.61-3c1-1.23,2-2.47,3.11-3.59a94.59,94.59,0,0,1,20.68-16c1.51-.86,3.07-1.66,4.66-2.38a62.76,62.76,0,0,1,15.76-5.22,64.92,64.92,0,0,1,9.23-.86,4.35,4.35,0,0,1,.86.16l2.75,5.82c-.54.3-1,.6-1.46.82-1.66.74-3.35,1.43-5,2.17a26.58,26.58,0,0,1-6.76,2.18,12.61,12.61,0,0,0-3.15,1c-4,1.79-7.93,3.64-11.89,5.46-.65.29-1.31.54-2,.8.09-.66.66-.84,1.12-1.09,1.64-.86,3.31-1.67,4.95-2.54.45-.24,1.08-.27,1.23-.92.44.09.85.13,1-.44.9,0,1.72-.12,2-1.13l.33.09-.31-.15c-.47.23-1,.44-1.4.7a5.21,5.21,0,0,0-.62.54c-.43-.07-.86-.15-1,.44a3.7,3.7,0,0,0-1.12.17c-2.09,1-4.16,2.13-6.23,3.21a5.59,5.59,0,0,0-.73.53l.78.55a35.09,35.09,0,0,0-3.75,2.46c-1.14,1-2,2.22-3.1,3.27-3.07,3-6.25,5.87-9.25,8.93a35.86,35.86,0,0,0-6.85,9.08,100.13,100.13,0,0,0-4.13,9.37,10.45,10.45,0,0,0-.59,5.14,68.34,68.34,0,0,0,2,9,2.14,2.14,0,0,0,2.33-.23A52.3,52.3,0,0,0,190,320.31c.95-.95,2.06-1.74,3.1-2.59A5.32,5.32,0,0,0,194,317c1.52-2,3.71-3.2,5.79-4.49a68.55,68.55,0,0,1,27.8-9.88,93.56,93.56,0,0,1,18.78-.27,9.63,9.63,0,0,1,5.69,2.14,4.65,4.65,0,0,1,1.27,1.39c1,2,1.61,4.25,2.57,6.58-.81.07-1.33.15-1.85.16-3.58.05-7.15.05-10.72.13a124,124,0,0,0-19.89,1.9,68.52,68.52,0,0,0-11.69,3.19,34.65,34.65,0,0,0-10.65,6.63,57.22,57.22,0,0,0-4.72,4.35,33.72,33.72,0,0,0-3.18,4.44,59.19,59.19,0,0,0-4.41,8.7,13.58,13.58,0,0,0-1,5.11,16.81,16.81,0,0,0,.05,3.33c.47,2.87-.27,5.68-.41,8.55-.29-1.4-.58-2.8-1-4.73a15.14,15.14,0,0,0,.1,3.08c.1.87.14,1.74.23,2.61,0,.15.09.4.17.42,1,.22.71,1.07.83,1.72s.19,1.07.33,1.81a7.31,7.31,0,0,0,1.1-.56c.93-.75,1.82-1.54,2.74-2.3a14.8,14.8,0,0,1,4.64-2.83,9.8,9.8,0,0,0,2.05-1.18,81.56,81.56,0,0,1,14.22-7.67,10.56,10.56,0,0,0,1.07-.52,61.85,61.85,0,0,1,30.58-6.68,68.27,68.27,0,0,1,8.23,1.28,79.73,79.73,0,0,1,16.33,5,2.83,2.83,0,0,1,.54.36,6.27,6.27,0,0,1-2.47.54c-3,.26-6,.38-9,.73a24.62,24.62,0,0,0-6.75,1.23,19,19,0,0,1-6.72,1.37,4.23,4.23,0,0,1-1.42,0c-1.94-.64-3.77,0-5.58.47a113.34,113.34,0,0,0-20.78,7.5c-3.54,1.78-7.1,3.52-10.51,5.57a7.53,7.53,0,0,0-3.53,4.56,67.44,67.44,0,0,0-1.84,8.68,78.5,78.5,0,0,0,9.51,3.25,3.13,3.13,0,0,0,2.7-.53,28.18,28.18,0,0,1,3.48-2.06c5.06-2.58,10.45-3,16-2.34a132,132,0,0,1,13.5,2.82c2.7.62,5.44,1.12,8.18,1.55a30,30,0,0,0,4,.16c.87,0,1.73,0,2.54,0a34.44,34.44,0,0,1,1.09,8.47c-.42.08-.87.2-1.32.24a84.86,84.86,0,0,0-8.76.83,59.76,59.76,0,0,1-8.71,1c-4.12.2-8.25.33-12.37.44a50.08,50.08,0,0,0-9.7.95,21.45,21.45,0,0,0-6.09,1.91,10,10,0,0,1-3.23.72,24.63,24.63,0,0,1-7.12.17,16.9,16.9,0,0,1-8.46-3.55,32.68,32.68,0,0,1-6.59-7.15,71,71,0,0,1-10.63-22c-.92-3.28-1.76-6.59-2.73-9.86-2-6.89-4.69-13.5-9.05-19.3-.38-.5-.75-1-1.16-1.5-2.92-3.45-3.6-7.48-3.2-11.84s.72-8.54,1-12.82a19.52,19.52,0,0,0-.1-3.33,14.37,14.37,0,0,0-2.78-6.74,29.18,29.18,0,0,1-4.33-24.3,26.85,26.85,0,0,1,4.46-8.89,35.36,35.36,0,0,0,2.38-3.83,62.46,62.46,0,0,0,6.61-22.49,77.85,77.85,0,0,0,.25-15.93c-.47-4.74-1.18-9.46-2-14.15-.64-3.83-1.51-7.63-2.36-11.43a38.62,38.62,0,0,0-4.86-11.59,69.24,69.24,0,0,0-10-13c-1.05-1.07-2.07-2.18-3.06-3.3a15.09,15.09,0,0,0-3.56-3,3.41,3.41,0,0,0-4.39.25,9.17,9.17,0,0,0-3.1,5.18,23.31,23.31,0,0,0,.1,6.41,37.07,37.07,0,0,0,1.92,9.55c.72,2,1.23,4.09,3,5.48l1.71,3.6c3.2,6.68,4.54,13.84,5.3,21.13.27,2.52.24,5.07.34,7.61,0,.31,0,.64,0,1a45.1,45.1,0,0,1-.25,10.45c-.22,2.28-.49,4.56-.94,6.85a11.32,11.32,0,0,1-.09-1.16c0-.4.07-.79.09-1.19.14-2.45.28-4.91.39-7.36a2.92,2.92,0,0,0-.11-1.18,16.28,16.28,0,0,1-.54-5.42c0-1.91-.17-3.81-.2-5.72a23.36,23.36,0,0,1,.09-3.55,17.14,17.14,0,0,0-.48-5,62.93,62.93,0,0,0-6.6-19.79,59.75,59.75,0,0,1-4.18-10.85,1.18,1.18,0,0,0-.68-.88c.06-.75.11-1.5.17-2.25h-.28l.11,2.25c.23,1.15.54,2.3.68,3.47a18.72,18.72,0,0,0,2.31,7c3.88,6.86,5.89,14.33,7.25,22a90.37,90.37,0,0,1,.92,20.39c-.16,3.17-.38,6.33-.59,9.5a3.18,3.18,0,0,1-.15.93c-1.29,3.36-1.51,7-2.42,10.41-.5,1.92-.91,3.86-1.38,5.78-1.61,6.63-3.32,13.23-4.78,19.88a74.28,74.28,0,0,1-2.19,7.51c-.88,2.63-1.63,5.29-2.43,7.95L133,299l-.11.15c-.06.29,0,0,0-.21a1.35,1.35,0,0,0,.25-1.73.6.6,0,0,0,.69-.47c.31-.88.63-1.77,1-2.63.1-.24.41-.4.62-.59h0a24,24,0,0,0-.76,2.94,16.61,16.61,0,0,1-1.32,4.75l.05-.05c-.73,1.48-1.44,3-2.2,4.45-.31.58-.4,1.36-1.33,1.48-.23,0-.5.58-.59.93-.69,2.77-1.44,5.52-2,8.32s-1,5.6-1.69,8.38a54.15,54.15,0,0,0-1.22,8.22,65.22,65.22,0,0,0,3.9,27.81c.72,1.93,1.62,3.79,2.51,5.64A125.34,125.34,0,0,1,136,378.14a45.14,45.14,0,0,1,2.24,21.77q-1.74,12.38-2.6,24.84c-.11,1.66-.25,3.32-.38,5a3,3,0,0,0,.72,2.42l0,0-.44,2.61L135,433.6c-.18,2.48-.34,4.76-.49,7,.07.18.13.34,0,0,.17.32.08.15,0,0a2.33,2.33,0,0,1,.4,2.22,26.24,26.24,0,0,0-1.09,6.54c-.49,6.18-1,12.35-1.69,18.5-2.19,20.75-6.95,41-12.35,61.08-6.46,24.09-14.56,47.65-23.31,71-8,21.33-16.6,42.42-25.21,63.51-1,2.42-2.07,4.81-3,7.27a11.5,11.5,0,0,1-3.48,5c-.6.5-1.17,1-1.85,1.64l-3.89-2.07c.24-.75.42-1.41.68-2,2.05-5.25,4.13-10.49,6.18-15.74.31-.8.49-1.66.73-2.49l.17-.3ZM176.1,346.38l.11-.31-.18.29.29,0v.19Zm26.1,21.9c-.36.13-.69.29-.66.76a8.06,8.06,0,0,0-.84,1.62c-.84,3.35-1.61,6.72-2.44,10.2,1.71.66,3.3,1.33,4.93,1.86,2,.65,4.07,1.22,6.14,1.73a16.3,16.3,0,0,0,2.53.22c.11-.38.17-.6.25-.82.19.1.37.2.56.28s.14,0,.21,0-.09-.19-.16-.2a4.22,4.22,0,0,0-.61-.07,3.26,3.26,0,0,1-1.1.24,17.59,17.59,0,0,1-4.31-1.25c-1.87-.84-3.81-1.52-5.72-2.27l-1.35-.53c.55-3.13,1.09-6.16,1.61-9.19.1-.62.16-1.25.23-1.87.27-.25.53-.49.78-.74L202,368l.18-.05ZM161.69,268c.87,0,1-.11,1.21-1.12a6.65,6.65,0,0,0,.92-1,43,43,0,0,0,5-11.25c1-3.84,2.42-7.58,3.16-11.45,1.63-8.5,1.29-17.07.26-25.61a207.56,207.56,0,0,0-4.08-21.26,38.71,38.71,0,0,0-6.26-13.78,4.08,4.08,0,0,0-2.77-2c.54.93,1,1.77,1.48,2.55a49.08,49.08,0,0,1,6.95,16.58c1.56,7.13,3.48,14.18,4.18,21.48a73.16,73.16,0,0,1,.38,13.07c-.12,1.41-.42,2.81-.65,4.21-.55,3.28-1,6.6-1.67,9.85A64.31,64.31,0,0,1,163.62,265c-.32.6-.9,1.15-.68,2a2.85,2.85,0,0,0-.51.3c-.27.25-.5.52-.75.78,0,.13,0,.27,0,.39a.8.8,0,0,0,.13.19,1.2,1.2,0,0,0,0-.2C161.79,268.29,161.74,268.16,161.69,268Zm50.84,125.38-1.69.64c.75.17,1.42.25,1.69-.65a4.33,4.33,0,0,0,3,.09,31.26,31.26,0,0,0,3.21-.77c1-.36,2.33-.08,3.28-1-.18-.12-.25-.2-.31-.2a17.59,17.59,0,0,0-6.09,1.55c-.07,0-.05.28-.09.42-.57-.06-1.14-.15-1.72-.17A11.38,11.38,0,0,0,212.53,393.41Zm11.28-1.7a3.45,3.45,0,0,0,.66.15c4.28,0,8.56.06,12.84,0a13.2,13.2,0,0,0,2.55-.43.52.52,0,0,0,.47-.72,5.84,5.84,0,0,0-.88-.12c-2.69,0-5.39.05-8.08.11q-3,.06-5.94.2C224.81,390.94,224.13,390.93,223.81,391.71ZM213.3,589.29l-.48-.1a2.73,2.73,0,0,0-.21,1,3.92,3.92,0,0,1-.11,2.53,3.19,3.19,0,0,0-.17,1.17c-.12,2.51-.24,5-.35,7.52a.74.74,0,0,0,.11.45,1,1,0,0,0,.52.42.64.64,0,0,0,.54-.28,2.38,2.38,0,0,0,.31-.87,10.43,10.43,0,0,0-.18-3.52,32.45,32.45,0,0,1-.18-3.28C214.06,592.68,213.41,591,213.3,589.29Zm3.12-36.82a3.5,3.5,0,0,0,.25-3.13c-.07-.24-.34-.41-.71-.85C215.92,550.06,215.41,551.33,216.42,552.47Zm-2,15a7.35,7.35,0,0,0,1.3-3.82c0-.2-.38-.39-.6-.6-.16.25-.3.37-.31.5C214.71,564.73,214.61,565.88,214.45,567.51ZM243.12,351.9a1.49,1.49,0,0,0,1.92,0ZM220.75,489.16h.17v-1h-.17Z" transform="translate(-58.64 -20.2)"/><path d="M213.32,51.18l-1.65.4a2.12,2.12,0,0,0-.46,2.19h1.61a3.52,3.52,0,0,1-.12,2.14,53.07,53.07,0,0,1-2.83,8.33c-1,2.5-2.08,5-3.1,7.48a3.08,3.08,0,0,1-1.08,1.5,8.28,8.28,0,0,0-1.31,1.64,7.51,7.51,0,0,1-1.07,1.24.82.82,0,0,1-.83,0c-.27-.34-.28-.94-.94-.8a1.39,1.39,0,0,0-1.22,1.11c0,.19.42.51.66.8s.48.61.71.91h1.48a6.23,6.23,0,0,0,1,3.35,2.14,2.14,0,0,1-.12,2.48,15.23,15.23,0,0,1-1.76,2.24A21.86,21.86,0,0,0,198.37,92a13.75,13.75,0,0,1-2.08,2.86c-.68.78-1.57,1.36-2.24,2.14a2.29,2.29,0,0,1-1.75.64c.17,2.93-.55,5.29-3.59,6.32a9,9,0,0,1,0,1.87c-.14.59-.38,1.39-.82,1.64-1.26.71-1.81,2-2.75,3a1.75,1.75,0,0,1-.64.1c-1.09-.3-1.65.26-2,1.17-.26.67-.49,1.35-.76,2-.74,1.74-1,1.9-2.89,2.24-.69,1.79-1.42,3.53-2,5.3a3.72,3.72,0,0,1-2,2.2,13.5,13.5,0,0,0-1.67.91c-.77.5-.8.85-.19,1.75a4.52,4.52,0,0,0,.36.43,6,6,0,0,0-1.63,3.57c-.1.47-.13.95-.26,1.4a1.3,1.3,0,0,1-2,.84,7,7,0,0,1-.91-.64.63.63,0,0,0-.2,1.05c.33.44.71.83,1.22,1.4-.46.19-.82.5-1.07.42a15.7,15.7,0,0,0-5.76-.47c-.09,1.36-.09,1.41-1,1.83-.72.33-1.48.57-2.21.89-1.06.48-1.16,1-.42,2,.14.18.32.34.58.62-.35.32-.67.62-1,.91s-.71.47-.87.8a6.51,6.51,0,0,1-3.27,3,3.37,3.37,0,0,0-2,3.87l-1.83,1.78-1.19-.84a6.32,6.32,0,0,0-2.89-1.5,3.2,3.2,0,0,1-1.44-.76,18.53,18.53,0,0,1-3.09-3.11l.53-1.81c-2-.46-2-.46-3.39-2.11-1.5.68-2.8,2.2-4.6,1.4v-2.18c-1.78-.33-2.24-2.17-3.48-3.15l.4-1a9.7,9.7,0,0,1-.86-1,9,9,0,0,1-.53-1.25h-1.18c-1.42-2.6-3.64-4.64-5.76-6.78-.33-.34-.67-.68-1-1a6.65,6.65,0,0,1-2.2-4.29l-2-1.06-.1-.83-3.73-1.87c.27-.84,1.26-1.35.78-2.54l-2.14-.48c-.43-.5.09-.78.11-1.25l-1.34-2.17c-1.73-.23-2.83-1.57-4.15-2.56a6,6,0,0,0-.46-1.78,4,4,0,0,1-.61-1.73c0-.44-.61-.74-.89-.47-.83.77-1.93.37-2.81.8-.05-.07-.15-.14-.14-.19,0-.38.12-.75.17-1.07.69-.22,1.47.79,1.88-.49A10.46,10.46,0,0,1,102.38,98a5.54,5.54,0,0,0-1.54-2.36c-.65-.7-1.34-1.37-1.92-2.12a3.49,3.49,0,0,1-.62-2.67,11.93,11.93,0,0,0-.92-6.28l-1.54.13a14.19,14.19,0,0,1-2.61-4.23H91.92c-.73-1.84-1.47-3.66-2.16-5.51a8.9,8.9,0,0,1-.21-1.4c-.18-1,.86-1.83.38-3a8.61,8.61,0,0,1-.29-2.81,1.68,1.68,0,0,1,.19-1.12,1.69,1.69,0,0,0,.58-1.69c-.25-.91-.36-1.87-1.3-2.45-.32-.19-.42-.73-.38-1.31l.61.39c.13-.08.31-.12.38-.24A3.85,3.85,0,0,0,90,59c-.46-.12-1.23-.11-.83-.73a2.93,2.93,0,0,0,.23-2.66,11,11,0,0,1-.62-4.2,7.46,7.46,0,0,0-.58-3,6.85,6.85,0,0,1,.47-6.18,8.45,8.45,0,0,0,.54-1.38A2.87,2.87,0,0,0,91.88,40c.24-.5-.26-1.43.94-1.41V34l-1.56-.29.28-1.9a1.74,1.74,0,0,1,.26-.32c1.12-.89,2.24-1.76,3.36-2.63.06,0,.16-.09.18-.16.54-1.87,2.41-2.67,3.4-4.19.13-.19.25-.38.39-.6l2.09-.41a30.51,30.51,0,0,0-2.44,2.82,6.14,6.14,0,0,0-1.17,3.3c.48.81,1.2-.13,1.82.37.35.6,0,1.1-.5,1.53a1.29,1.29,0,0,1-1.49.34c-1.08-.44-1.47-.29-1.9.6-.88,1.8-1.25,3.6.31,5.28A12.2,12.2,0,0,1,96.74,39a23.48,23.48,0,0,0,1.6-2.46,19.45,19.45,0,0,1,3.1-4.77,4.62,4.62,0,0,0,.58-1.3,11.39,11.39,0,0,0,1.54-.4,9.12,9.12,0,0,0,1.24-.7l2.11-3.8a10.11,10.11,0,0,0,1.73.53,1.28,1.28,0,0,0,1.4-.65c0-.69-.61-.87-1.1-1.1s-1-.44-1.65-.75L109.35,22a6.54,6.54,0,0,1,1.31,6.22c.21.13.35.29.47.28a5.9,5.9,0,0,1,1.59-.19c.4.07.7.58,1.1.79.63.32,1.32.52,2,.8a43.76,43.76,0,0,1,12.14,7.85,57.66,57.66,0,0,1,10.58,12.82c1.74,2.84,3.31,5.78,5,8.68q.47.81.93,1.65c1.46-1.13,1.61-1.39,2.06-3.57l3.17-1.58c-.19-1-1.27-1.59-.54-2.89.18-.11.64-.4,1.11-.66a31.58,31.58,0,0,0,6.44-4.88c1.43-1.38,2.82-2.79,4.25-4.17a28.89,28.89,0,0,1,9.27-6.56c.45-1,1.07-1.9.83-3,1.23-.57,2.24.52,3.49.12l-.5-1.54c0-.06.05-.24.15-.32A16.35,16.35,0,0,1,179,29.45a18,18,0,0,0,6.17-3.18l1.12.72c.67-.54,1.31-1.07,2-1.57s1.42-1,2.17-1.49h3.28A6.73,6.73,0,0,1,195,24c.84.14,1.5.5,1.57,1.49a5.47,5.47,0,0,0,.17.81c1.28.23,1.3-.77,1.73-1.53a10.92,10.92,0,0,1,1.3.29c.75.25,1.47.64,2.23.82a7.9,7.9,0,0,1,4.78,3.61,20.82,20.82,0,0,1,2.77,4.7,9.11,9.11,0,0,1,.82,3.44,5.52,5.52,0,0,0,1.3,3.69l1.32-.73c.66,1.12.34,2.31.49,3.36-1.77,1.75-1.78,2.41-.27,4.26.26.32.92.47.54,1.27a3.35,3.35,0,0,0-.8-.69,1,1,0,0,0-.83,0,.82.82,0,0,0-.15.8,17.3,17.3,0,0,0,1.4,1.56ZM118.89,97.51l0-.05c0,.28,0,.69-.13.83a21,21,0,0,1-1.83,1.3,14.73,14.73,0,0,1,.89,1.78,15.47,15.47,0,0,0,4.27,6.72,1.92,1.92,0,0,1,.7.93c.15,1,.92,1.62,1.41,2.41,2.21,3.6,5.15,6.61,7.82,9.84a2.18,2.18,0,0,0,2.09.85c.05,0,.12.15.15.19l-.81.43c.43.47.76.8,1.06,1.17a1.75,1.75,0,0,0,2.68.46c.07-.05.26.08.5.16l.28,1.8,2.74,1.1c-.1.57-.31.83-.82.74-.3,0-.64-.54-1,.11L140.7,130h2.75c1.5-.76,1.21-2.09,1.67-3,.54-.24,1-.41,1.41-.62s.76-.46,1.16-.71c-.23-.3-.4-.48-.53-.68-.76-1.16-.71-1.5.49-2.21a17,17,0,0,0,5.32-5c1-1.36,1.87-2.76,2.76-4.16a24.07,24.07,0,0,1,5.62-6.52l-.39-3,3-.28-1.32-1.49a14.79,14.79,0,0,1,3.25-3.59A9.37,9.37,0,0,0,168.76,95c.23-.7.9-.52,1.4-.81l1.05-2.9c.92-.59,1.71-1.11,2.52-1.6a1.68,1.68,0,0,1,1.8-.15c.32.17.67.28,1,.41.68-1.06-.67-1.17-.68-1.84A10.32,10.32,0,0,0,177,85.56a6.4,6.4,0,0,1,1.46-2.89c.58-.75,1.08-1.57,1.63-2.35A10,10,0,0,1,183,77.5c.13-.07.2-.24.33-.41l.16-1.52-1.5-.65L183.34,73c2.14-.11,2.14-.11,2.42-2.11a3.29,3.29,0,0,1,.16-.44l-.07.06c.4.18.78.66,1.2,0l-.3-1.84c1.53.81,1.53.81,2.06-.73-.2-.1-.4-.21-.61-.3s-.54-.24-1-.42c.47-.78.88-1.44,1.27-2.11,1.47-2.53,3.75-4.54,4.78-7.36a.76.76,0,0,1,.29-.37,4.09,4.09,0,0,0,1.47-2.1,2.53,2.53,0,0,1,2.1-1.68c1.13-.16,1.47-.77,1.65-2.15a19.91,19.91,0,0,0-2.43,1,6.41,6.41,0,0,0-1.21,1.14c-.91.25-1.67.4-2.39.67s-1.24,1-2.27.81c0-.45,0-.91,0-1.37,0-1.31-.3-1.64-1.52-1.46a2.64,2.64,0,0,1-2.21-.52,8.33,8.33,0,0,0-1.27-.66c-.39.72-.7,1.35-1.06,2s-1.19.6-1.82.76l-.3,1.4L179.85,57l-1.32-.35c-.91.57-1,1.52-1.37,2.28a4.34,4.34,0,0,1-1,1.53,4.79,4.79,0,0,1-1.71.43l-1.21,3.88a3.45,3.45,0,0,1-2.34,2.46c-.65.21-1.38.43-1.66,1.33l.81,1.28a7.93,7.93,0,0,0-1.79,3.89,13,13,0,0,1-.69,2,1.07,1.07,0,0,1-1.63.3c-.35-.22-.42-.94-1.24-.55a5.09,5.09,0,0,0,.22,1c.17.43.47.82.63,1.27.05.15-.13.42-.27.59a.45.45,0,0,1-.42.09c-1.15-.94-2.66-.89-3.94-1.49a4.67,4.67,0,0,0-1.11-.19c.1,1.39,0,1.68-.89,2s-1.48.39-2.1.55c-.56,1.1.19,1.85.28,2.74l-.49.42c-.25.19-.62.34-.73.59a3.72,3.72,0,0,1-2.7,2.1,2.33,2.33,0,0,0-1.9,2.63c0,.12-.13.26-.2.38a1,1,0,0,1-.17.18c-1.58,1-3.44,1.61-4.88,2.91a2,2,0,0,1-1.13.28,3.21,3.21,0,0,1-2.58-1,2,2,0,0,1-.24-.44,3.77,3.77,0,0,0,.22-.62c.05-.29.05-.59.08-1-1.09.29-1.49-.46-2-1-1.08.77-1.36,2.75-3.41,2,.13-.48.46-1,.31-1.31-.3-.62,0-1,.27-1.54-2-1-1.71-3.16-2.36-4.77l.78-1.82c-.72-1.09,0-2.33-.28-3.39l-.86-.38a34.4,34.4,0,0,0-1.69-9.22,6.75,6.75,0,0,1-.21-4.93c-1.13-.23-1.08-1.32-1.68-1.84A17.23,17.23,0,0,0,129,58.93c.55-.6,1.37-.94,1.28-2l-2-.28.31-1-1-1.42a11.82,11.82,0,0,1-1.48-.23c-.68-.19-1.34-.47-2-.7l-.89-1.61-1,.4-2.12-1.56-1.42,1.63a16.78,16.78,0,0,0-2-.54c-.48-.06-.94.15-1,.9a3.37,3.37,0,0,1,1.16,2.63.81.81,0,0,0,.29.61c.61.36.57.85.44,1.44s-.19,1.25-.28,1.88a1.93,1.93,0,0,1-.9,1.6c-.73.38-.86,1-1.15,1.7s-.33,1.15-1,1.57a1.29,1.29,0,0,0-.39,2.13c.24.3.58.5.84.79.06.06-.05.28-.08.43-.14,0-.29-.11-.44-.15a3.54,3.54,0,0,0-.45-.08c-.83,1.39-.83,1.39.21,2-.82.6-.62,1.33-.27,2.09a4.88,4.88,0,0,1,.65,1.77,5,5,0,0,0,1.27,3,3.57,3.57,0,0,1,.8,3.75,4.26,4.26,0,0,0-.15.88c-1.8.36-1.8,1.68-1.81,3.05.42.46.83.94,1.28,1.39a1.19,1.19,0,0,0,1.86-.06c.09-.08.29,0,.45-.06l.69.75-.31,2.78c.56.78,1.15,1.52,1.64,2.32.14.23,0,.64-.06,1.31A7.2,7.2,0,0,0,116,89.56L114.94,91a4.43,4.43,0,0,0-.79-.29,2.69,2.69,0,0,0-.7.09c.09.67.45,1.45.2,1.88-.64,1.12.13,1.76.39,2.46l3.61.78a4.9,4.9,0,0,0,.13,1.2C118,97.62,118.35,97.87,118.89,97.51ZM95.64,44.79c-.91-.33-1.55-.64-2.23-.81a1.94,1.94,0,0,0-2.59,1.7,2.37,2.37,0,0,0,.43,2c.38.51.83.95,1.24,1.44a3.59,3.59,0,0,1,1,2.35,1.83,1.83,0,0,1-.38,1c-.87,1-.94,1.18-.42,2.2a7.56,7.56,0,0,0,2.43,2.86,6.47,6.47,0,0,0,1.16.48l-.13-2.5c-.8-.26-1.46-.5-1.18-1.46l1.14.09c-.45-2.33.25-4.74-1-6.92ZM110.77,73a6.47,6.47,0,0,0-4-3.74v2.15c.64.17,1.28.17,1.2,1l-.94.38c.14,1.81.3,3.59,1.53,5.09a2.78,2.78,0,0,1,.37,1.06c.12.42.21.85.32,1.29a19.62,19.62,0,0,0,2-.14,3.58,3.58,0,0,0,1.31-.49,1.49,1.49,0,0,0,.11-2.56,15.7,15.7,0,0,0-1.45-.8,3.09,3.09,0,0,1-1.55-1.71,3.17,3.17,0,0,1-.07-.69Zm-4.68,18.71L102,91c0,.83,1.07,1,.79,1.77s.09.88.55,1.09a9.65,9.65,0,0,0,3.93.86C107.25,93.53,106.56,92.74,106.09,91.66ZM101.94,81a9.74,9.74,0,0,1-1-2.11,2.79,2.79,0,0,0-.93-2.17,13.2,13.2,0,0,0-1.83,5.14C99.57,82.08,100.6,81.55,101.94,81Zm8.75,5.52a13,13,0,0,0,2.37,1.31c.59.18,1.2.15,1.61.74.06.08.46,0,.61-.08s.31-.45.25-.59a5.07,5.07,0,0,0-.79-1.4c-1.06-1.19-2.52-1.31-4.16-1.53Zm7.12-42.45c-.25,1.29-.73,2.45-.47,3.74h1.55A16.5,16.5,0,0,0,120.5,44,2.91,2.91,0,0,0,117.81,44.06Zm-7.1,5.74c-1.17,1.92-1.35,2.36-1.44,3.47.07,0,.14.1.2.09a2.32,2.32,0,0,0,.7-.08c1-.36,2-.75,3.13-1.18A7.43,7.43,0,0,0,110.71,49.8Zm34.66,12a5,5,0,0,0,1.84,3.67,8.15,8.15,0,0,0,1.57-2.27Zm.29,72.78c1.47-1.08,1.47-1.08,1.75-2.24l-2.89-1.12Zm-2.76,5.13c.14-1.37.14-1.37-.92-2.39a1.27,1.27,0,0,0-.39-.14l-.8,1.7A3,3,0,0,0,142.9,139.66Zm-.19-53.1c.18-1.75.18-1.75-.59-2.47l-.66,1.73Zm-31.27,1.91c0,.71,0,1.16.46,1.41a.68.68,0,0,0,.6-.08.54.54,0,0,0,0-.55A6.65,6.65,0,0,0,111.44,88.47ZM132,56.52c.22.08.3.15.36.13a9.34,9.34,0,0,0,1-.27.71.71,0,0,0-.08-.41c-.29-.31-.73-.2-1.15.27A2.72,2.72,0,0,0,132,56.52ZM97.89,68.28l-.58.63c.24.18.48.36.73.52,0,0,.25-.22.23-.29A5.86,5.86,0,0,0,97.89,68.28Zm9.69-8.92c-.56.32-.69.62-.38,1,.07.08.27,0,.41,0Zm.93-30.91.19-.08s-.12-.12-.16-.11a1.06,1.06,0,0,0-.23.16Z" transform="translate(-58.64 -20.2)"/><path d="M126.61,344.56c-1.19-2.86-1.4-8.35-.58-12.75.51,2.36.31,4.44.52,6.49S127.23,342.46,126.61,344.56Z" transform="translate(-58.64 -20.2)"/><path d="M117.56,23.29c.11-.11.22-.28.34-.29a3.53,3.53,0,0,1,.78.12c-.32.63-.62,1.17-.87,1.72-.48,1.09-.92,1.42-1.83,1.18a1.23,1.23,0,0,1-.62-.63.7.7,0,0,1,.18-.64c.67-.55,1.39-1,2.09-1.54Z" transform="translate(-58.64 -20.2)"/><path d="M113.06,21.64c-.31.11-.44.22-.56.2-1-.14-2-.31-3-.49.31-.89,1.06-.9,1.87-1.13Z" transform="translate(-58.64 -20.2)"/><path d="M124.57,23.68l-1.93-1.82C124.71,21.43,124.81,21.5,124.57,23.68Z" transform="translate(-58.64 -20.2)"/><path d="M127.76,33.6c.45,1,.78,1.8,1.13,2.63-.93.45-.71-.56-1.12-.78C127.05,35.08,127.14,34.9,127.76,33.6Z" transform="translate(-58.64 -20.2)"/><path d="M146.52,254.21c.31-1.28.62-2.55.88-3.65.22,2,.13,2.38-.85,3.64Z" transform="translate(-58.64 -20.2)"/><path d="M135.05,449.51a8.49,8.49,0,0,1,0,4.07C134.48,452,135,450.73,135.05,449.51Z" transform="translate(-58.64 -20.2)"/><path d="M100.16,28.39c-.11-.14-.38-.33-.36-.47a1.59,1.59,0,0,1,1.39-1.34c.16,0,.45.29.44.44A1.68,1.68,0,0,1,100.16,28.39Z" transform="translate(-58.64 -20.2)"/><path d="M130.45,497.07a7.62,7.62,0,0,1,.85-4,7.84,7.84,0,0,1-.68,3.85c0,.05-.14.05-.21.07Z" transform="translate(-58.64 -20.2)"/><path d="M122.17,25.75l-1.89-1.35a7.77,7.77,0,0,1,1.74.11C122.64,24.74,122.38,25.24,122.17,25.75Z" transform="translate(-58.64 -20.2)"/><path d="M142.82,49.66a3.79,3.79,0,0,1-2-2.56,3.35,3.35,0,0,1,1.45,1.27c.28.36.51.76.76,1.14Z" transform="translate(-58.64 -20.2)"/><path d="M137.45,371.55c-.21,0-.55,0-.61-.13a6,6,0,0,1-1-2.95l-.06,0c.94.81,1.17,2,1.67,3.07Z" transform="translate(-58.64 -20.2)"/><path d="M90,39.33l-.8-1.88C90.47,37.69,90.47,37.69,90,39.33Z" transform="translate(-58.64 -20.2)"/><path d="M121.44,30a3.39,3.39,0,0,1-.66-.3.46.46,0,0,1-.11-.4c0-.11.19-.28.28-.28a4,4,0,0,1,1.1.21c.15.05.21.33.31.51a5.52,5.52,0,0,1-.54.28C121.76,30.05,121.68,30,121.44,30Z" transform="translate(-58.64 -20.2)"/><path d="M211,631.58a3.51,3.51,0,0,1,.7.81c.07.19-.18.5-.28.76-.24-.12-.62-.17-.7-.36a3.7,3.7,0,0,1-.11-1.07Z" transform="translate(-58.64 -20.2)"/><path d="M131.8,307.75l.77-2.67c0,1,.25,2-.81,2.62Z" transform="translate(-58.64 -20.2)"/><path d="M140.36,37.48c-.63-.3-1.1-.37-1.21-.61a1,1,0,0,1,.18-1c.34-.22.72,0,.83.48C140.21,36.58,140.24,36.8,140.36,37.48Z" transform="translate(-58.64 -20.2)"/><path d="M143,49.51a7.48,7.48,0,0,1,.91.65,11,11,0,0,1,.86,1c-.41.66-.85.59-1.14.16a13,13,0,0,1-.79-1.64Z" transform="translate(-58.64 -20.2)"/><path d="M117.56,23.29l.07-.08-2-.46C117,22.5,117,22.5,117.56,23.29Z" transform="translate(-58.64 -20.2)"/><path d="M136,432.15c-.43-.89-.15-1.8-.15-2.83.15.24.3.36.29.48,0,.77-.12,1.53-.18,2.3Z" transform="translate(-58.64 -20.2)"/><path d="M136.94,443.16l-.09-1.3H137v1.31Z" transform="translate(-58.64 -20.2)"/><path d="M146.46,248.45l.54-1.67c.21.68.29,1.31-.55,1.65Z" transform="translate(-58.64 -20.2)"/><path d="M146,251.41c.15-1,.3-1.95.44-2.94l0,0a12.87,12.87,0,0,1,.16,2c0,.31-.39.59-.61.89Z" transform="translate(-58.64 -20.2)"/><path d="M139.09,40.86l.67-1.24c.4.37.87.69.48,1.19C140.12,41,139.63,40.85,139.09,40.86Z" transform="translate(-58.64 -20.2)"/><path d="M101.76,589c.33-.69.35-1.6,1.31-1.83h0c-.22.48-.47,1-.67,1.45a.51.51,0,0,1-.7.35Z" transform="translate(-58.64 -20.2)"/><path d="M58.64,670.12l.48-1.17.27.08L59,670.29Z" transform="translate(-58.64 -20.2)"/><path d="M147.79,247.58l.05-.89H148l.05.9Z" transform="translate(-58.64 -20.2)"/><path d="M146,251.37c.16.83.55,1.71-.43,2.33h0q.24-1.12.48-2.28Z" transform="translate(-58.64 -20.2)"/><path d="M130.55,35.77c.06-.42,0-.77.16-.93a.84.84,0,0,1,.76-.2c.35.24.08.54-.15.74A4.38,4.38,0,0,1,130.55,35.77Z" transform="translate(-58.64 -20.2)"/><path d="M138.24,171.86l.06-.8.21,0-.06.8Z" transform="translate(-58.64 -20.2)"/><path d="M130.41,497v1.23c-.47-.46-.15-.81.05-1.17C130.45,497.07,130.41,497,130.41,497Z" transform="translate(-58.64 -20.2)"/><path d="M125.77,514.78l.12-1.49c.39.76.26,1.13-.18,1.43Z" transform="translate(-58.64 -20.2)"/><path d="M125.07,516.35c.24-.52.47-1.05.7-1.57l-.06-.06c0,.62.2,1.32-.63,1.62Z" transform="translate(-58.64 -20.2)"/><path d="M129.53,31.13l.33.53c-.13.06-.33.22-.38.18a2.76,2.76,0,0,1-.4-.49Z" transform="translate(-58.64 -20.2)"/><path d="M97.27,36c.23-.41.32-.58.42-.74a1.26,1.26,0,0,1,.17-.13c0,.12.14.3.1.36A4.78,4.78,0,0,1,97.27,36Z" transform="translate(-58.64 -20.2)"/><path d="M103.65,585.56a1.91,1.91,0,0,0-.56,1.6h0c0-.57-.07-1.17.5-1.56Z" transform="translate(-58.64 -20.2)"/><path d="M133.27,303.37c-.05.13-.11.26-.16.38,0-.06-.1-.14-.09-.19a3.12,3.12,0,0,1,.15-.39C133.21,303.24,133.24,303.31,133.27,303.37Z" transform="translate(-58.64 -20.2)"/><path d="M135.47,293.52c0-.2,0-.41,0-.61s0-.14,0-.21.08.14.08.21,0,.4,0,.6Z" transform="translate(-58.64 -20.2)"/><path d="M131.76,307.7l.13,1-.29,0c.08-.29.15-.58.21-.88Z" transform="translate(-58.64 -20.2)"/><path d="M101.71,589l.27,1.2c-.61-.51-.25-.83-.21-1.15Z" transform="translate(-58.64 -20.2)"/><path d="M125.08,516.34l.1.94h-.11v-.94Z" transform="translate(-58.64 -20.2)"/><path d="M296.12,346.93l-.23-.88.15,0c0,.3.06.6.08.9Z" transform="translate(-58.64 -20.2)"/><path d="M211.72,618.81s.12.06.12.08-.05.25-.08.37-.13-.06-.12-.09A2.33,2.33,0,0,1,211.72,618.81Z" transform="translate(-58.64 -20.2)"/><path d="M208,669.28c0,.07.1.17.07.21s-.14.1-.22.15a.89.89,0,0,1,0-.23S207.92,669.32,208,669.28Z" transform="translate(-58.64 -20.2)"/><path d="M146.55,254.2c0,.07-.07.13-.07.2s0,.27.06.41a.6.6,0,0,0,.07-.2c0-.14-.06-.27-.09-.4Z" transform="translate(-58.64 -20.2)"/><path d="M145.57,253.7l.09.9h-.1v-.91Z" transform="translate(-58.64 -20.2)"/><path d="M133,30.85l.29.27-.42.32c-.07-.11-.22-.25-.19-.33S132.88,30.93,133,30.85Z" transform="translate(-58.64 -20.2)"/><path d="M139.67,48.33l-.38.17a1.38,1.38,0,0,1-.09-.43c0-.06.19-.1.3-.15Z" transform="translate(-58.64 -20.2)"/><path d="M211.94,626.82l.46.76-.24.11-.16-.92Z" transform="translate(-58.64 -20.2)"/><polygon points="80.68 391.47 80.67 391.31 80.75 391.34 80.68 391.47"/><path d="M128.62,28.34l-.22.3c0-.06-.14-.14-.12-.18a1.43,1.43,0,0,1,.2-.3Z" transform="translate(-58.64 -20.2)"/><path d="M209.9,638.55h-.1a1.21,1.21,0,0,1,0-.19l.11,0Z" transform="translate(-58.64 -20.2)"/><path d="M103.36,21.6a2.22,2.22,0,0,1-.49.24c-.06,0-.16-.15-.25-.23l.47-.42Z" transform="translate(-58.64 -20.2)"/><path d="M108,21a4,4,0,0,1-.26-.32,5.12,5.12,0,0,1,.49-.44c.07.1.21.25.19.3A3.57,3.57,0,0,1,108,21Z" transform="translate(-58.64 -20.2)"/><path d="M137.41,371.59l.12,1c-.46-.35-.24-.67-.09-1Z" transform="translate(-58.64 -20.2)"/><path d="M135.17,374c.51.25.52.73.53,1.2l.07-.07-.67-1.16Z" transform="translate(-58.64 -20.2)"/><path d="M135.1,373.94l.19-.27c0,.1-.07.2-.12.3Z" transform="translate(-58.64 -20.2)"/><path d="M136.38,375.88c-.6.05-.53-.43-.61-.78l-.07.07.75.74Z" transform="translate(-58.64 -20.2)"/><path d="M136.45,375.91l-.19.29.11-.32Z" transform="translate(-58.64 -20.2)"/><polygon points="79.25 360.7 79.22 360.54 79.33 360.58 79.25 360.7"/><path d="M135.15,367.71c.56,0,.58.4.59.81l.06,0q-.31-.41-.6-.81S135.15,367.71,135.15,367.71Z" transform="translate(-58.64 -20.2)"/><path d="M133.84,367.16a3.57,3.57,0,0,1,.28.27s0,.09,0,.14l-.17-.48Z" transform="translate(-58.64 -20.2)"/><path d="M134.64,366.84c.59,0,.61.42.51.87,0,0,0-.06,0,0-.18-.29-.36-.58-.53-.87Z" transform="translate(-58.64 -20.2)"/><path d="M133.91,367.09l-.55-.89-.05.07.53.88Z" transform="translate(-58.64 -20.2)"/><path d="M134.67,366.79l-.51-.81h0a.63.63,0,0,1,.48.84S134.67,366.79,134.67,366.79Z" transform="translate(-58.64 -20.2)"/><path d="M133.36,366.2l-.52-.92,0,.07.51.91Z" transform="translate(-58.64 -20.2)"/><path d="M134.16,366a1.14,1.14,0,0,0-.54-1.14l.08,0a1.49,1.49,0,0,1,.47,1.11Z" transform="translate(-58.64 -20.2)"/><path d="M132.84,365.28l-.58-.9.07,0,.48.92Z" transform="translate(-58.64 -20.2)"/><path d="M133.62,364.84l.25-.24-.18-.05c0,.11,0,.22,0,.33Z" transform="translate(-58.64 -20.2)"/><path d="M132.26,364.38l.18-.26c0,.1-.06.2-.1.3Z" transform="translate(-58.64 -20.2)"/><polygon points="72.58 290.23 72.55 290.05 72.67 290.08 72.58 290.23"/><path d="M133.42,301.2l.22.31c-.06-.12-.12-.24-.17-.36Z" transform="translate(-58.64 -20.2)"/><path d="M103.57,585.61v-.33l-.27.11.33.17Z" transform="translate(-58.64 -20.2)"/><polygon points="83.57 253.23 83.61 253.39 83.5 253.36 83.57 253.23"/><path d="M212.37,637.74l-.14,0,0-.31c.05,0,.13,0,.14.08S212.38,637.68,212.37,637.74Z" transform="translate(-58.64 -20.2)"/><path d="M209,646.3l-.07.18a1.08,1.08,0,0,1-.16-.2s.08-.09.12-.14Z" transform="translate(-58.64 -20.2)"/><path d="M209.5,649l-.06.19a.9.9,0,0,1-.19-.2s.08-.09.13-.14Z" transform="translate(-58.64 -20.2)"/><polygon points="152.05 635.51 151.86 635.58 151.88 635.41 152.05 635.51"/><path d="M213.32,51.19c0,.12-.1.24-.13.36a.74.74,0,0,0,0,.21c-.05-.09-.16-.21-.14-.26a1.36,1.36,0,0,1,.28-.31Z" transform="translate(-58.64 -20.2)"/><polygon points="83.23 20.07 83.39 20.04 83.37 20.15 83.23 20.07"/><path d="M94.48,26.87l.18-.07,0,.3c-.07,0-.15,0-.19-.05S94.48,26.93,94.48,26.87Z" transform="translate(-58.64 -20.2)"/><path d="M58.73,678.54l0-.52s.11.09.1.13a2.92,2.92,0,0,1-.14.38Z" transform="translate(-58.64 -20.2)"/><path d="M58.72,678.53c.34.11.88-.19,1,.47h0l-1-.47Z" transform="translate(-58.64 -20.2)"/><path d="M60.66,679.49a.85.85,0,0,0-1-.48h0c.36.07.84-.11,1,.46Z" transform="translate(-58.64 -20.2)"/><path d="M60.64,679.46l.39,0h-.37Z" transform="translate(-58.64 -20.2)"/><path class="cls-1" d="M162.94,267c-.22-.81.36-1.36.68-2a64.31,64.31,0,0,0,6.18-16.68c.7-3.25,1.12-6.57,1.67-9.85.23-1.4.53-2.8.65-4.21a73.16,73.16,0,0,0-.38-13.07c-.7-7.3-2.62-14.35-4.18-21.48a49.08,49.08,0,0,0-6.95-16.58c-.51-.78-.94-1.62-1.48-2.55a4.08,4.08,0,0,1,2.77,2,38.71,38.71,0,0,1,6.26,13.78,207.56,207.56,0,0,1,4.08,21.26c1,8.54,1.37,17.11-.26,25.61-.74,3.87-2.2,7.61-3.16,11.45a43,43,0,0,1-5,11.25,6.65,6.65,0,0,1-.92,1Z" transform="translate(-58.64 -20.2)"/><path class="cls-1" d="M212.09,383.84l-.23.83a16.3,16.3,0,0,1-2.53-.22c-2.07-.51-4.12-1.08-6.14-1.73-1.63-.53-3.22-1.2-4.93-1.86.83-3.48,1.6-6.85,2.44-10.2a8.06,8.06,0,0,1,.84-1.62l-.06-.06c-.08.62-.14,1.25-.24,1.87-.52,3-1.06,6.06-1.61,9.19l1.35.53c1.91.75,3.85,1.43,5.72,2.27a17.59,17.59,0,0,0,4.31,1.25,3.26,3.26,0,0,0,1.1-.24Z" transform="translate(-58.64 -20.2)"/><path class="cls-1" d="M223.81,391.71c.32-.78,1-.77,1.62-.79q3-.14,5.94-.2c2.69-.06,5.39-.08,8.08-.11a5.84,5.84,0,0,1,.88.12.52.52,0,0,1-.47.72,13.2,13.2,0,0,1-2.55.43c-4.28,0-8.56,0-12.84,0A3.45,3.45,0,0,1,223.81,391.71Z" transform="translate(-58.64 -20.2)"/><path class="cls-1" d="M203.26,280.47l-.78-.55a5.59,5.59,0,0,1,.73-.53c2.07-1.08,4.14-2.17,6.23-3.21a3.7,3.7,0,0,1,1.12-.17l0-.05c-.15.65-.78.68-1.23.92-1.64.87-3.31,1.68-4.95,2.54-.46.25-1,.43-1.12,1.09Z" transform="translate(-58.64 -20.2)"/><path class="cls-1" d="M215.58,393.51c0-.15,0-.4.07-.43a17.59,17.59,0,0,1,6.09-1.55c.06,0,.13.08.31.2-1,.91-2.23.63-3.28,1a28.47,28.47,0,0,1-3.22.76Z" transform="translate(-58.64 -20.2)"/><path class="cls-1" d="M213.56,274.38c-.32,1-1.14,1.16-2,1.14l0,.05a5.21,5.21,0,0,1,.62-.54c.45-.26.93-.47,1.4-.7Z" transform="translate(-58.64 -20.2)"/><path class="cls-1" d="M136,182.48l-.11-2.25h.28c-.06.75-.11,1.5-.17,2.25Z" transform="translate(-58.64 -20.2)"/><path class="cls-1" d="M212.52,393.4c-.26.9-.93.82-1.68.65l1.69-.64Z" transform="translate(-58.64 -20.2)"/><path class="cls-1" d="M243.12,351.9H245A1.49,1.49,0,0,1,243.12,351.9Z" transform="translate(-58.64 -20.2)"/><path class="cls-1" d="M212.53,393.41a11.38,11.38,0,0,1,1.31-.08c.58,0,1.15.11,1.73.17l0,0a4.25,4.25,0,0,1-3-.08Z" transform="translate(-58.64 -20.2)"/><path class="cls-1" d="M162.9,266.91c-.2,1-.34,1.15-1.21,1.12h0c.25-.26.48-.53.75-.78a2.85,2.85,0,0,1,.51-.3Z" transform="translate(-58.64 -20.2)"/><path class="cls-1" d="M132.92,298.94c-.06.25-.11.5,0,.21L133,299Z" transform="translate(-58.64 -20.2)"/><path class="cls-1" d="M133.16,297.21a1.35,1.35,0,0,1-.25,1.73l.07.06.24-1.73Z" transform="translate(-58.64 -20.2)"/><path class="cls-1" d="M212.11,383.85a4.22,4.22,0,0,1,.61.07c.07,0,.11.13.16.2s-.15,0-.21,0-.37-.18-.57-.28C212.09,383.84,212.11,383.85,212.11,383.85Z" transform="translate(-58.64 -20.2)"/><path class="cls-1" d="M201.54,369c0-.47.3-.63.66-.76l.06,0-.79.74Z" transform="translate(-58.64 -20.2)"/><path class="cls-1" d="M202.2,368.28l0-.35L202,368a2.75,2.75,0,0,0,.22.26Z" transform="translate(-58.64 -20.2)"/><path class="cls-1" d="M134.51,440.61c.08.17.17.34,0,0,.14.35.08.19,0,0A0,0,0,0,1,134.51,440.61Z" transform="translate(-58.64 -20.2)"/><path class="cls-1" d="M176.09,346.38l.22.15v-.19l-.29,0Z" transform="translate(-58.64 -20.2)"/><path class="cls-1" d="M176,346.36l.18-.29c0,.1-.07.21-.11.31Z" transform="translate(-58.64 -20.2)"/><path class="cls-1" d="M210.56,276c.14-.59.57-.51,1-.44l0-.05c-.15.57-.56.53-1,.44Z" transform="translate(-58.64 -20.2)"/><path class="cls-1" d="M213.58,274.33l.31.15-.33-.09Z" transform="translate(-58.64 -20.2)"/><path class="cls-1" d="M161.69,268c.05.13.1.26.14.39a1.2,1.2,0,0,1,0,.2.8.8,0,0,1-.13-.19c0-.12,0-.26,0-.39Z" transform="translate(-58.64 -20.2)"/><path class="cls-1" d="M66.72,655.09l.12-.36-.17.3Z" transform="translate(-58.64 -20.2)"/><path class="cls-1" d="M142.12,84.09c.77.72.77.72.59,2.47" transform="translate(-58.64 -20.2)"/><path class="cls-1" d="M98.27,69.14c0,.07-.22.3-.23.29-.25-.16-.49-.34-.73-.52" transform="translate(-58.64 -20.2)"/><path class="cls-1" d="M108.51,28.45l-.2,0a1.06,1.06,0,0,1,.23-.16s.11.07.16.11Z" transform="translate(-58.64 -20.2)"/><path d="M123.76,99.5l.06-1.12.94,1.14c-.05.21-.05.34-.09.35-.92.35-1.54,1.37-2.66,1.24a1,1,0,0,1-.68-.48.85.85,0,0,1,.41-.7A20.17,20.17,0,0,1,123.76,99.5Z" transform="translate(-58.64 -20.2)"/><path d="M118.89,97.51l.94-2.15,1.37.43a3.42,3.42,0,0,1-1.72,1.84c-.15.07-.41-.1-.62-.17C118.85,97.46,118.89,97.51,118.89,97.51Z" transform="translate(-58.64 -20.2)"/><path d="M137.51,121.17l3.25,2c0,.67-.57.94-.87.56a11.29,11.29,0,0,0-2.27-1.68c-.2-.15-.28-.45-.42-.69Z" transform="translate(-58.64 -20.2)"/><path d="M128.34,99.64l1.4.53c-.14.61-.33,1-1,1.16A3.27,3.27,0,0,1,128.34,99.64Z" transform="translate(-58.64 -20.2)"/><path d="M124.07,105.44c-.14.23-.18.42-.28.46a.88.88,0,0,1-1.09-.5c0-.14.25-.51.27-.49C123.35,105.06,123.7,105.25,124.07,105.44Z" transform="translate(-58.64 -20.2)"/><path d="M122.12,95.54c.59-.23,1-.41,1.26.25.12.4-.17.94-.46.91C122.29,96.64,122.35,96.07,122.12,95.54Z" transform="translate(-58.64 -20.2)"/><path d="M137.12,112.47c-.28.2-.44.4-.62.42-.34,0-.66-.17-.57-.52s.38-.42.58-.63Z" transform="translate(-58.64 -20.2)"/><path d="M116.61,91.09a3,3,0,0,1,.57,1c.06.37-.31.48-.63.39a.63.63,0,0,1-.5-.85C116.11,91.41,116.36,91.31,116.61,91.09Z" transform="translate(-58.64 -20.2)"/><path d="M136.84,115.39a5.83,5.83,0,0,1-.75.52c-.08,0-.25-.12-.37-.19l.4-.73Z" transform="translate(-58.64 -20.2)"/><path d="M126.61,111.77c-.8-.35-.8-.35-.06-1.41A1.22,1.22,0,0,1,126.61,111.77Z" transform="translate(-58.64 -20.2)"/><path d="M116.86,82.57c-.2-.26-.36-.46-.5-.67,0,0,.24-.25.3-.22a5.84,5.84,0,0,1,.71.43Z" transform="translate(-58.64 -20.2)"/><path d="M125.25,101.25c.62.2,1.16.16,1.12.77,0,.16-.26.31-.49.56Z" transform="translate(-58.64 -20.2)"/><path d="M129.89,111.4a5.46,5.46,0,0,1-.64.56.42.42,0,0,1-.38-.09.39.39,0,0,1,0-.36C129.15,111.21,129.46,111,129.89,111.4Z" transform="translate(-58.64 -20.2)"/><path d="M132.17,108.63a3.81,3.81,0,0,1-.32-.24s.07-.17.12-.17a1.3,1.3,0,0,1,.34,0Z" transform="translate(-58.64 -20.2)"/><path d="M185.92,70.48c-.51,0-.6-.3-.47-1,.19.51.29.79.4,1.07Z" transform="translate(-58.64 -20.2)"/><path d="M128.86,108.78l-.15-.39c.13,0,.27-.12.39-.09s.16.27.13.29A1.43,1.43,0,0,1,128.86,108.78Z" transform="translate(-58.64 -20.2)"/><path d="M136,122.3s-.12.13-.14.12-.21-.15-.32-.22c0,0,.13-.15.14-.15A3.92,3.92,0,0,1,136,122.3Z" transform="translate(-58.64 -20.2)"/><polygon points="62.83 71.97 63.02 72.06 62.81 72.12 62.83 71.97"/></svg>